<svg width="142" height="53" viewBox="0 0 142 53" fill="none" xmlns="http://www.w3.org/2000/svg">
<path d="M29.1719 12.2185C28.7575 11.5712 28.2803 10.9664 27.7471 10.4129L17.9846 0.553859C17.6285 0.199152 17.1463 0 16.6436 0C16.141 0 15.6588 0.199152 15.3026 0.553859L12.7208 3.15389C12.3658 3.51654 12.167 4.00383 12.167 4.51131C12.167 5.01879 12.3658 5.50607 12.7208 5.86872L22.5598 15.8334L28.9788 22.3289C30.0358 20.863 30.6196 19.1092 30.6522 17.3022C30.6848 15.4953 30.1645 13.7215 29.161 12.2185H29.1719ZM25.2272 8.31024V8.37401C25.2308 8.42679 25.2308 8.47975 25.2272 8.53253V8.31024Z" fill="url(#paint0_linear_912_38837)"/>
<path d="M19.067 49.8343L16.4542 52.4197C16.2766 52.6036 16.0641 52.7504 15.8293 52.8516C15.5938 52.9513 15.3407 53.0027 15.085 53.0027C14.8293 53.0027 14.5761 52.9513 14.3407 52.8516C14.1058 52.7504 13.8934 52.6036 13.7157 52.4197L4.18835 42.9452L3.85856 42.6099C3.319 42.0518 2.83622 41.4415 2.41733 40.7879C1.40044 39.2899 0.870423 37.5147 0.899579 35.7044C0.930553 33.8952 1.63933 32.1387 2.70339 30.6738L9.08049 37.1785L19.067 47.1595C19.4204 47.5149 19.6188 47.9957 19.6188 48.4969C19.6188 48.9981 19.4204 49.4789 19.067 49.8343Z" fill="url(#paint1_linear_912_38837)"/>
<path d="M28.9725 22.3876C27.9203 23.888 26.5853 25.1685 25.0424 26.1573L23.3807 27.2633L13.0552 34.1324C12.658 34.3492 12.2809 34.5788 11.9165 34.8265C11.5521 35.0743 11.1986 35.3221 10.8652 35.5754C7.47619 38.2264 5.97119 41.5881 6.38115 44.8422C6.40833 45.0123 6.45859 45.1778 6.53056 45.3342L3.82485 42.6941C3.29588 42.1414 2.82118 41.5392 2.4073 40.8957C-0.546204 36.2751 0.820321 30.727 6.49959 26.9572L8.1631 25.8458L18.4958 18.9694C18.8857 18.7471 19.2647 18.5176 19.6291 18.2698C19.9935 18.022 20.347 17.7742 20.6804 17.5136C21.3342 17.0049 21.9438 16.4417 22.5025 15.8301C23.4619 14.8525 24.1974 13.6782 24.6583 12.3884C25.1192 11.0985 25.2944 9.72395 25.1717 8.35975C25.1754 8.32584 25.1754 8.29163 25.1717 8.25772C25.1432 8.05849 25.095 7.86258 25.0278 7.67285L27.3126 9.97407C27.3322 10.0004 27.3556 10.0237 27.3819 10.0433L27.7098 10.3731C28.2464 10.9324 28.7273 11.5426 29.1456 12.1951C30.1614 13.7107 30.6886 15.5011 30.656 17.3254C30.6234 19.1497 30.0327 20.9201 28.9634 22.3985L28.9725 22.3876Z" fill="url(#paint2_linear_912_38837)"/>
<path d="M6.37518 8.34473C5.97069 11.5861 7.46839 14.904 10.8683 17.5387C11.1944 17.7901 11.5479 18.0434 11.9141 18.2821C12.2804 18.5208 12.663 18.7613 13.0547 18.9763L23.3893 25.7852L25.0583 26.8784C30.7302 30.6245 32.104 36.1288 29.1469 40.7513C28.108 42.3125 26.7568 43.6413 25.1785 44.6541C25.5812 41.4127 24.0853 38.0948 20.6909 35.4675C20.3574 35.2087 20.004 34.9628 19.6396 34.7168C19.2751 34.4708 18.8889 34.243 18.499 34.0226L8.1644 27.2301L6.49543 26.1204C0.823454 22.3798 -0.550358 16.87 2.40497 12.2858C3.44187 10.7119 4.79371 9.37 6.37518 8.34473Z" fill="url(#paint3_linear_912_38837)"/>
<path d="M44.6085 43.843V38.683H42.6152V37.9961H47.3234V38.683H45.3319V43.843H44.6085Z" fill="black"/>
<path d="M51.542 43.843V37.9961H55.2352V38.683H52.2653V40.505H54.7488V41.1901H52.2653V43.147H55.2352V43.8339L51.542 43.843Z" fill="black"/>
<path d="M61.9804 43.9651C61.4593 43.9812 60.9444 43.8471 60.4973 43.5788C60.0904 43.3191 59.7676 42.9469 59.5681 42.5074C59.1479 41.4905 59.1479 40.3485 59.5681 39.3316C59.7676 38.8921 60.0904 38.52 60.4973 38.2603C60.9444 37.9919 61.4593 37.8579 61.9804 37.874C62.564 37.8414 63.1407 38.0139 63.6105 38.3616C64.0803 38.7094 64.4138 39.2104 64.5532 39.778L63.8243 39.973C63.7252 39.5709 63.5021 39.2101 63.1866 38.9417C62.8435 38.6782 62.4181 38.5446 61.9859 38.5646C61.5996 38.5486 61.2178 38.6523 60.8927 38.8616C60.597 39.0659 60.3693 39.354 60.2386 39.6888C60.0855 40.0811 60.0094 40.4993 60.0145 40.9205C60.004 41.3408 60.0778 41.7589 60.2313 42.1503C60.3635 42.4847 60.5917 42.7726 60.8872 42.9775C61.213 43.1852 61.5943 43.2888 61.9804 43.2745C62.4127 43.2944 62.838 43.1608 63.1812 42.8974C63.4951 42.6277 63.7179 42.2674 63.8189 41.8661L64.5477 42.061C64.4083 42.6287 64.0748 43.1297 63.605 43.4774C63.1352 43.8252 62.5586 43.9976 61.975 43.9651H61.9804Z" fill="black"/>
<path d="M69.0146 43.843V37.9961H69.7435V40.5743H72.8172V37.9961H73.546V43.843H72.8172V41.2593H69.7362V43.8412L69.0146 43.843Z" fill="black"/>
<path d="M78.2451 43.843V37.9961H78.9739L82.0222 42.5639V37.9961H82.751V43.843H82.0222L78.9739 39.2715V43.843H78.2451Z" fill="black"/>
<path d="M89.8642 43.966C89.3436 43.9824 88.8292 43.8483 88.3829 43.5797C87.9751 43.3211 87.6521 42.9486 87.4537 42.5083C87.2444 42.0051 87.1367 41.4655 87.1367 40.9204C87.1367 40.3754 87.2444 39.8358 87.4537 39.3325C87.6521 38.8923 87.9751 38.5198 88.3829 38.2612C88.8362 38.0079 89.3468 37.875 89.866 37.875C90.3853 37.875 90.8959 38.0079 91.3492 38.2612C91.7564 38.5195 92.0784 38.8921 92.2748 39.3325C92.484 39.8358 92.5917 40.3754 92.5917 40.9204C92.5917 41.4655 92.484 42.0051 92.2748 42.5083C92.0784 42.9487 91.7564 43.3214 91.3492 43.5797C90.9012 43.8476 90.3859 43.9816 89.8642 43.966ZM89.8642 43.2754C90.2502 43.2932 90.6322 43.1907 90.9574 42.9821C91.2538 42.7773 91.4812 42.4877 91.6097 42.1512C91.9037 41.357 91.9037 40.4839 91.6097 39.6897C91.4805 39.3555 91.2531 39.0684 90.9574 38.8661C90.6315 38.6583 90.2506 38.5535 89.8642 38.5655C89.4782 38.5477 89.0962 38.6502 88.771 38.8588C88.4775 39.0646 88.2513 39.3523 88.1205 39.686C87.9676 40.0796 87.8921 40.4991 87.8982 40.9214C87.8869 41.3398 87.96 41.7562 88.1132 42.1458C88.2448 42.48 88.4716 42.7682 88.7655 42.9748C89.0937 43.1821 89.4762 43.2868 89.8642 43.2754Z" fill="black"/>
<path d="M97.0596 43.843V37.9961H97.7884V43.1561H100.5V43.843H97.0596Z" fill="black"/>
<path d="M106.995 43.966C106.474 43.9819 105.96 43.8478 105.514 43.5797C105.106 43.3211 104.783 42.9486 104.585 42.5083C104.375 42.0051 104.268 41.4655 104.268 40.9204C104.268 40.3754 104.375 39.8358 104.585 39.3325C104.783 38.8923 105.106 38.5198 105.514 38.2612C105.967 38.0079 106.478 37.875 106.997 37.875C107.516 37.875 108.027 38.0079 108.48 38.2612C108.887 38.5195 109.209 38.8921 109.406 39.3325C109.615 39.8358 109.723 40.3754 109.723 40.9204C109.723 41.4655 109.615 42.0051 109.406 42.5083C109.209 42.9487 108.887 43.3214 108.48 43.5797C108.032 43.8485 107.517 43.9826 106.995 43.966ZM106.995 43.2754C107.381 43.2932 107.763 43.1907 108.088 42.9821C108.385 42.7769 108.613 42.4875 108.742 42.1512C109.034 41.3566 109.034 40.4843 108.742 39.6897C108.612 39.3558 108.384 39.0688 108.088 38.8661C107.762 38.6583 107.381 38.5535 106.995 38.5655C106.609 38.5477 106.227 38.6502 105.902 38.8588C105.609 39.0648 105.383 39.3525 105.253 39.686C105.099 40.0794 105.023 40.499 105.029 40.9214C105.019 41.3397 105.092 41.756 105.244 42.1458C105.376 42.4806 105.603 42.7691 105.898 42.9748C106.226 43.1824 106.608 43.2871 106.995 43.2754Z" fill="black"/>
<path d="M116.475 43.9657C116.1 43.97 115.728 43.8981 115.382 43.7544C115.057 43.6172 114.766 43.4108 114.529 43.1494C114.285 42.8698 114.099 42.5439 113.982 42.191C113.849 41.7793 113.784 41.3484 113.791 40.9156C113.777 40.3585 113.891 39.8056 114.125 39.2995C114.328 38.8653 114.653 38.5 115.061 38.2482C115.491 37.9954 115.984 37.8691 116.482 37.8838C117.046 37.8568 117.603 38.0177 118.066 38.3411C118.472 38.6539 118.763 39.0929 118.893 39.5892L118.164 39.7386C118.056 39.401 117.846 39.1046 117.565 38.8895C117.262 38.6705 116.894 38.5589 116.521 38.5725C116.135 38.5547 115.753 38.6572 115.427 38.8658C115.134 39.0698 114.908 39.3565 114.779 39.6894C114.626 40.0831 114.55 40.5024 114.555 40.9247C114.544 41.3431 114.617 41.7594 114.77 42.1491C114.902 42.4835 115.129 42.7717 115.424 42.9782C115.75 43.1851 116.131 43.2898 116.517 43.2788C116.847 43.2919 117.174 43.2177 117.466 43.0638C117.725 42.9178 117.933 42.6967 118.064 42.4297C118.214 42.1183 118.301 41.7802 118.319 41.4349H117.078V40.8391H119.082C119.091 40.9037 119.095 40.9689 119.095 41.0341C119.095 41.1069 119.095 41.1561 119.095 41.1835C119.103 41.6779 119.001 42.1679 118.794 42.6174C118.606 43.0273 118.299 43.3717 117.914 43.6068C117.478 43.8605 116.979 43.985 116.475 43.9657Z" fill="black"/>
<path d="M123.557 43.843V37.9961H124.285V43.843H123.557Z" fill="black"/>
<path d="M129.069 43.843V37.9961H132.763V38.683H129.791V40.505H132.274V41.1901H129.791V43.147H132.763V43.8339L129.069 43.843Z" fill="black"/>
<path d="M139.215 43.9659C138.832 43.9715 138.451 43.8996 138.096 43.7546C137.778 43.624 137.497 43.4176 137.276 43.1533C137.059 42.8849 136.915 42.5647 136.857 42.2241L137.604 42.1056C137.688 42.4565 137.897 42.7644 138.193 42.9711C138.506 43.1806 138.875 43.2882 139.252 43.279C139.494 43.2828 139.735 43.2414 139.962 43.1569C140.161 43.0828 140.336 42.957 140.471 42.7925C140.593 42.6372 140.658 42.4438 140.653 42.2459C140.657 42.1314 140.633 42.0177 140.583 41.9143C140.542 41.8215 140.479 41.7393 140.401 41.6738C140.324 41.6054 140.236 41.5483 140.143 41.5044C140.044 41.4578 139.941 41.4194 139.836 41.3896L138.348 40.9468C138.186 40.8988 138.028 40.8379 137.876 40.7646C137.728 40.6916 137.592 40.597 137.471 40.484C137.35 40.3698 137.254 40.2322 137.187 40.0795C137.113 39.9007 137.077 39.7083 137.082 39.5147C137.072 39.1983 137.166 38.8875 137.349 38.6292C137.537 38.3783 137.789 38.1831 138.078 38.0644C138.41 37.9329 138.765 37.8708 139.122 37.8822C139.483 37.878 139.841 37.95 140.172 38.0935C140.473 38.2213 140.739 38.4216 140.944 38.6766C141.154 38.942 141.296 39.2547 141.358 39.5876L140.591 39.7206C140.556 39.496 140.463 39.2846 140.319 39.1084C140.181 38.9354 140.003 38.7985 139.8 38.7094C139.584 38.6136 139.35 38.564 139.113 38.5636C138.893 38.5585 138.673 38.5975 138.468 38.6784C138.29 38.7473 138.132 38.8601 138.009 39.0064C137.897 39.1406 137.837 39.3107 137.839 39.4856C137.832 39.6445 137.887 39.8 137.993 39.9192C138.1 40.0307 138.229 40.1193 138.372 40.1797C138.516 40.2388 138.663 40.2905 138.812 40.3346L139.926 40.6553C140.051 40.6899 140.199 40.7391 140.363 40.8011C140.537 40.8664 140.701 40.9553 140.851 41.0653C141.013 41.182 141.146 41.3348 141.239 41.5117C141.35 41.7271 141.404 41.9674 141.394 42.2095C141.4 42.47 141.341 42.7278 141.223 42.9602C141.114 43.1772 140.954 43.3646 140.757 43.5068C140.546 43.6587 140.309 43.7717 140.059 43.8402C139.785 43.9223 139.501 43.9646 139.215 43.9659Z" fill="black"/>
<path d="M51.3921 30.9C55.9691 30.9 60.1525 28.9067 60.1525 24.8527C60.1525 22.2053 58.0608 20.1792 55.479 19.2627C57.864 18.4137 59.7935 16.8449 59.7935 14.1319C59.7935 10.0123 55.4206 8.37793 51.3921 8.37793C47.34 8.37793 42.9926 10.0178 42.9926 14.1319C42.9926 16.8449 44.8875 18.4137 47.3072 19.2627C44.6925 20.1737 42.6318 22.2053 42.6318 24.8527C42.6318 28.9067 46.817 30.9 51.3921 30.9ZM51.3921 17.4334C50.053 17.2038 47.6989 16.5224 47.6989 14.9154C47.6989 13.3794 49.2349 12.4975 51.3921 12.4975C53.5166 12.4975 55.0544 13.3794 55.0544 14.9154C55.0544 16.5169 52.7332 17.2093 51.3921 17.4334ZM51.3921 26.7804C49.1037 26.7804 47.34 25.7674 47.34 24.1986C47.34 22.4021 50.0202 21.5512 51.3921 21.3544C52.7332 21.5512 55.4462 22.4021 55.4462 24.1986C55.4462 25.7728 53.615 26.7804 51.3921 26.7804Z" fill="#272727"/>
<path d="M74.0603 30.8992C77.9831 30.8992 81.0878 29.2976 83.3107 26.8124V18.4456H72.9252V22.4923H78.6791V25.1088C77.7954 25.925 75.9971 26.7741 74.0694 26.7741C70.081 26.7741 67.2058 23.7349 67.2058 19.6172C67.2058 15.4994 70.0719 12.4712 74.0603 12.4712C76.3487 12.4712 78.2109 13.7776 79.2257 15.3135L83.052 13.2218C81.4122 10.64 78.5734 8.35156 74.0621 8.35156C67.6558 8.35156 62.4248 12.7244 62.4248 19.6299C62.4321 26.4862 67.654 30.8992 74.0603 30.8992Z" fill="#272727"/>
<path d="M98.7025 8.7041H92.8848L84.4834 30.5083H89.7454L91.1192 26.8132L95.7927 13.3466L100.468 26.8132L101.84 30.5083H107.104L98.7025 8.7041Z" fill="#272727"/>
<path d="M116.728 30.5093V12.7901H123.069V8.70508H105.68V12.7901H112.057V30.5093H116.728Z" fill="#272727"/>
<path d="M141.464 8.70508H126.035V12.7901H141.464V8.70508Z" fill="#272727"/>
<path d="M130.678 26.4208H141.464V30.5077H126.035V17.3672H141.236V21.4522H130.678V26.4208Z" fill="#272727"/>
<path d="M95.7625 21.4111L92.4609 30.6579H99.002L95.7625 21.4111Z" fill="url(#paint4_linear_912_38837)"/>
<defs>
<linearGradient id="paint0_linear_912_38837" x1="27.0693" y1="12.5701" x2="8.85263" y2="6.32058" gradientUnits="userSpaceOnUse">
<stop stop-color="#0A387B"/>
<stop offset="0.56" stop-color="#2271FF"/>
</linearGradient>
<linearGradient id="paint1_linear_912_38837" x1="18.9577" y1="49.1018" x2="5.22143" y2="39.4833" gradientUnits="userSpaceOnUse">
<stop stop-color="#2271FF"/>
<stop offset="1" stop-color="#0A387B"/>
</linearGradient>
<linearGradient id="paint2_linear_912_38837" x1="24.4265" y1="19.2427" x2="6.59251" y2="34.2143" gradientUnits="userSpaceOnUse">
<stop stop-color="#02BEFE"/>
<stop offset="0.49" stop-color="#2170FF"/>
<stop offset="1" stop-color="#07B1FE"/>
</linearGradient>
<linearGradient id="paint3_linear_912_38837" x1="3.00807" y1="10.3599" x2="27.354" y2="41.1431" gradientUnits="userSpaceOnUse">
<stop stop-color="#2170FF"/>
<stop offset="0.5" stop-color="#02BEFE"/>
<stop offset="1" stop-color="#2170FF"/>
</linearGradient>
<linearGradient id="paint4_linear_912_38837" x1="96.0285" y1="29.552" x2="92.614" y2="23.286" gradientUnits="userSpaceOnUse">
<stop stop-color="#02BEFE"/>
<stop offset="1" stop-color="#2170FF"/>
</linearGradient>
</defs>
</svg>
