<svg width="24" height="24" viewBox="0 0 24 24" fill="none" xmlns="http://www.w3.org/2000/svg">
<path d="M10.854 4.14663C10.7601 4.05274 10.6328 4 10.5 4C10.3672 4 10.2399 4.05274 10.146 4.14663C10.0521 4.24052 9.99937 4.36786 9.99937 4.50063C9.99937 4.63341 10.0521 4.76074 10.146 4.85463L11.296 6.00463C10.0197 6.04471 8.78348 6.45982 7.74165 7.19815C6.69982 7.93647 5.89854 8.96531 5.43782 10.1562C4.97711 11.3471 4.87737 12.6474 5.15107 13.8946C5.42476 15.1419 6.05976 16.2809 6.97679 17.1695C7.89383 18.0581 9.05228 18.6568 10.3075 18.8911C11.5628 19.1254 12.8592 18.9847 14.035 18.4867C15.2109 17.9887 16.2139 17.1554 16.9191 16.0908C17.6242 15.0262 18.0002 13.7776 18 12.5006V12.4606C17.9987 12.3989 17.9853 12.338 17.9604 12.2815C17.9356 12.225 17.8999 12.1739 17.8553 12.1312C17.8107 12.0885 17.7582 12.055 17.7006 12.0326C17.6431 12.0102 17.5817 11.9993 17.52 12.0006H17.478C17.3484 12.0038 17.2253 12.0582 17.1357 12.1519C17.0461 12.2456 16.9973 12.371 17 12.5006C17 13.5794 16.6827 14.6344 16.0877 15.5343C15.4926 16.4341 14.6461 17.1391 13.6534 17.5615C12.6607 17.9839 11.5657 18.105 10.5047 17.9098C9.44371 17.7146 8.46355 17.2116 7.68623 16.4636C6.9089 15.7155 6.36874 14.7553 6.13296 13.7026C5.89719 12.6499 5.97621 11.5511 6.36021 10.5429C6.7442 9.53475 7.4162 8.66178 8.29257 8.03265C9.16895 7.40352 10.211 7.04602 11.289 7.00463L10.146 8.14663C10.0995 8.19312 10.0626 8.24831 10.0375 8.30905C10.0123 8.36979 9.99937 8.43489 9.99937 8.50063C9.99937 8.56638 10.0123 8.63148 10.0375 8.69222C10.0626 8.75295 10.0995 8.80814 10.146 8.85463C10.1925 8.90112 10.2477 8.938 10.3084 8.96316C10.3692 8.98831 10.4343 9.00126 10.5 9.00126C10.5657 9.00126 10.6308 8.98831 10.6916 8.96316C10.7523 8.938 10.8075 8.90112 10.854 8.85463L12.854 6.85463C12.9006 6.80819 12.9375 6.75301 12.9627 6.69227C12.9879 6.63152 13.0009 6.5664 13.0009 6.50063C13.0009 6.43486 12.9879 6.36974 12.9627 6.309C12.9375 6.24825 12.9006 6.19308 12.854 6.14663L10.854 4.14663ZM14.854 10.1466C14.9006 10.1931 14.9375 10.2483 14.9627 10.309C14.9879 10.3697 15.0009 10.4349 15.0009 10.5006C15.0009 10.5664 14.9879 10.6315 14.9627 10.6923C14.9375 10.753 14.9006 10.8082 14.854 10.8546L11.854 13.8546C11.8076 13.9012 11.7524 13.9381 11.6916 13.9633C11.6309 13.9886 11.5658 14.0015 11.5 14.0015C11.4342 14.0015 11.3691 13.9886 11.3084 13.9633C11.2476 13.9381 11.1924 13.9012 11.146 13.8546L9.646 12.3546C9.59951 12.3081 9.56264 12.253 9.53748 12.1922C9.51232 12.1315 9.49937 12.0664 9.49937 12.0006C9.49937 11.9349 9.51232 11.8698 9.53748 11.809C9.56264 11.7483 9.59951 11.6931 9.646 11.6466C9.69249 11.6001 9.74768 11.5633 9.80842 11.5381C9.86916 11.5129 9.93426 11.5 10 11.5C10.0657 11.5 10.1308 11.5129 10.1916 11.5381C10.2523 11.5633 10.3075 11.6001 10.354 11.6466L11.5 12.7936L14.146 10.1466C14.1924 10.1001 14.2476 10.0631 14.3084 10.0379C14.3691 10.0127 14.4342 9.99974 14.5 9.99974C14.5658 9.99974 14.6309 10.0127 14.6916 10.0379C14.7524 10.0631 14.8076 10.1001 14.854 10.1466Z" fill="white"/>
</svg>
