<svg width="32" height="33" viewBox="0 0 32 33" fill="none" xmlns="http://www.w3.org/2000/svg">
<path fill-rule="evenodd" clip-rule="evenodd" d="M20.7751 4.0651C20.3546 4.71855 20.0641 5.37928 19.886 5.93147C20.1539 5.84332 20.4846 5.77886 20.8847 5.7783C21.9764 5.77678 23.5283 6.24965 25.6915 7.88788C25.6958 7.89118 25.7001 7.89456 25.7043 7.89802C25.9276 8.08138 26.2274 8.22145 26.5919 8.35078C26.7723 8.41476 26.9604 8.47346 27.1566 8.53402L27.2035 8.54849C27.3828 8.60377 27.5688 8.66113 27.75 8.72314C28.2063 8.8793 28.7032 9.0868 29.0753 9.44739C29.297 7.87662 28.8393 6.60619 28.1642 5.70928C28.0838 5.7341 27.9993 5.75329 27.9152 5.76861C27.664 5.81435 27.3596 5.83548 27.0512 5.84284C26.431 5.85764 25.7347 5.81782 25.2818 5.77684C25.0532 5.75615 24.8846 5.55399 24.9053 5.32532C24.926 5.09664 25.1281 4.92804 25.3568 4.94874C25.7897 4.98792 26.4526 5.0254 27.0313 5.01159C27.1978 5.00762 27.3524 4.99948 27.4897 4.98681C27.1913 4.72984 26.8816 4.5331 26.588 4.40092C25.7282 4.01385 24.9653 3.45201 24.3889 2.88219C23.9824 2.4804 23.6435 2.04951 23.4376 1.65055C22.5654 2.0569 21.859 2.66498 21.3017 3.34185C21.9387 3.52391 22.7839 3.87063 23.5001 4.45844C23.6776 4.60411 23.7034 4.86608 23.5577 5.04357C23.412 5.22105 23.1501 5.24684 22.9726 5.10117C22.2379 4.4982 21.3211 4.18651 20.7751 4.0651ZM28.5115 4.82709C28.0199 4.28322 27.4608 3.88196 26.9293 3.64272C26.1708 3.30126 25.4884 2.79999 24.9734 2.29087C24.4451 1.76862 24.1412 1.28638 24.068 1.0006C24.0387 0.886027 23.962 0.789369 23.857 0.73483C23.7521 0.680291 23.6289 0.673033 23.5182 0.714874C22.1102 1.2474 21.0663 2.21869 20.3299 3.24197C20.2269 3.30238 20.1509 3.40632 20.13 3.53207C19.3897 4.65452 18.9893 5.82415 18.872 6.58278C18.8551 6.69172 18.8822 6.79731 18.94 6.88154C19.9878 9.47344 22.6919 10.8592 25.0062 11.4099C26.1772 11.6886 27.2946 11.7658 28.1175 11.6621C28.5227 11.6111 28.8977 11.5113 29.1721 11.337C29.3125 11.2478 29.4456 11.127 29.532 10.9643C29.5388 10.9513 29.5453 10.9382 29.5514 10.9251C29.5746 10.8921 29.5932 10.8551 29.6063 10.8148C30.4206 8.30511 29.7368 6.2907 28.658 4.99592C28.6286 4.93369 28.5833 4.87791 28.5232 4.83516C28.5194 4.83239 28.5154 4.82971 28.5115 4.82709ZM14.9746 8.73173C15.0443 8.74732 15.1064 8.77981 15.1572 8.82415C17.5101 9.73428 22.1418 13.2899 24.0741 20.3677C24.0886 20.4208 24.0921 20.4743 24.086 20.5258C24.0986 20.5961 24.0932 20.6704 24.067 20.7418C23.713 21.7074 23.1888 22.3802 22.5305 22.8874C21.8827 23.3866 21.1194 23.7136 20.3127 24.0122C20.0663 24.1035 19.8143 24.1927 19.5574 24.2837L19.5571 24.2838C18.116 24.7941 16.5179 25.36 14.8454 26.6502C12.7252 28.2857 11.1317 28.4757 9.81644 28.4198C9.56205 28.409 9.31699 28.3891 9.08979 28.3705C9.03368 28.3659 8.97867 28.3614 8.92487 28.3572C8.64778 28.3354 8.39982 28.3198 8.16453 28.3254C7.70643 28.3363 7.30958 28.4268 6.90819 28.7124C5.85935 29.4587 4.80092 29.6705 3.90779 29.3996C3.02453 29.1317 2.38574 28.4157 2.12283 27.4744C1.75892 26.7134 1.80132 25.8102 2.1589 24.9149C2.5228 24.0037 3.22178 23.0717 4.21787 22.2257C5.33198 21.2795 5.61241 20.5045 5.86775 19.7045L5.90814 19.5773C6.1641 18.7689 6.4409 17.8947 7.48816 16.9215C8.39723 16.0767 8.67234 15.2796 8.96722 14.4253L8.99203 14.3535C9.30464 13.4493 9.65696 12.4936 10.8274 11.5644C11.8076 10.7862 12.6015 10.3892 13.1963 10.0918C13.2772 10.0513 13.3544 10.0127 13.4279 9.97523C14.0344 9.66594 14.3194 9.46589 14.4939 8.99344C14.566 8.79817 14.7714 8.68633 14.9746 8.73173ZM15.8667 11.3812C15.5995 10.7696 15.4284 10.24 15.3476 9.81576C17.4851 10.8635 21.1945 13.9568 23.0294 19.7626C20.9837 18.5101 19.1085 16.5393 17.7085 14.5639C16.9167 13.4468 16.2858 12.3406 15.8667 11.3812ZM13.567 10.8361C12.9769 11.1316 12.2541 11.4934 11.3444 12.2157C11.2569 12.2851 11.1749 12.3545 11.0979 12.4239C11.1616 13.1387 11.7482 14.853 13.9717 16.5219C14.1553 16.6597 14.1924 16.9203 14.0546 17.104C13.9168 17.2876 13.6562 17.3247 13.4725 17.1869C11.5948 15.7775 10.7318 14.2776 10.414 13.2134C10.1172 13.6655 9.94931 14.1294 9.77788 14.6252L9.74722 14.714C9.47665 15.4989 9.17778 16.3658 8.3306 17.2575C8.52356 17.8005 9.09483 18.889 10.2376 19.8051C10.4168 19.9487 10.4456 20.2104 10.302 20.3895C10.1584 20.5687 9.89673 20.5975 9.71757 20.4539C8.65274 19.6003 8.01574 18.6038 7.69452 17.8973C7.1007 18.5676 6.90931 19.1711 6.69837 19.8362L6.65987 19.9574C6.37965 20.8353 6.0347 21.7736 4.75612 22.8595C3.83806 23.6392 3.23368 24.4656 2.93109 25.2232C2.62824 25.9816 2.63631 26.6424 2.88553 27.1414C2.89812 27.1666 2.90812 27.193 2.91536 27.2203C3.10799 27.9441 3.567 28.4273 4.14914 28.6039C4.73398 28.7813 5.52814 28.6739 6.42614 28.0349C6.543 27.9518 6.65986 27.8806 6.77674 27.8199C6.49099 27.4626 6.17081 26.9568 5.98703 26.3641C5.91904 26.1447 6.04171 25.9118 6.26102 25.8438C6.48033 25.7759 6.71324 25.8985 6.78123 26.1178C6.97892 26.7555 7.38489 27.2802 7.63426 27.5391C7.80426 27.5116 7.97442 27.4982 8.14482 27.4941C8.42592 27.4875 8.71033 27.5062 8.99019 27.5283C9.04857 27.5329 9.10667 27.5376 9.16472 27.5424C9.39036 27.5607 9.61514 27.5791 9.85171 27.5891C10.995 27.6376 12.3902 27.4939 14.3375 25.9918C15.1585 25.3585 15.9678 24.8871 16.743 24.5131C16.0867 24.198 15.3445 23.6105 14.7571 22.6002C14.6416 22.4017 14.709 22.1473 14.9075 22.0318C15.106 21.9164 15.3604 21.9838 15.4758 22.1823C16.3369 23.663 17.528 23.9908 17.9332 23.9949C18.409 23.8069 18.8655 23.6456 19.2964 23.4934L19.2967 23.4933L19.297 23.4932L19.2971 23.4932L19.2972 23.4931C19.5486 23.4043 19.7913 23.3186 20.0241 23.2324C20.8167 22.939 21.4802 22.647 22.023 22.2287C22.4791 21.8774 22.8602 21.4286 23.149 20.7919C20.7521 19.4879 18.589 17.2442 17.0301 15.0447C16.2114 13.8896 15.5503 12.7341 15.1047 11.7141C14.8779 11.1948 14.6999 10.695 14.5892 10.2393C14.3568 10.4253 14.0912 10.5704 13.8056 10.716C13.7286 10.7553 13.6491 10.7951 13.567 10.8361ZM25.1987 10.601C23.0848 10.0979 20.8161 8.90282 19.8362 6.85412C19.8729 6.83436 19.913 6.81433 19.9567 6.79464C20.1633 6.70169 20.4653 6.61038 20.8858 6.60979C21.729 6.60861 23.1049 6.97338 25.1833 8.54606C25.5176 8.81851 25.923 8.99574 26.3139 9.13442C26.5126 9.2049 26.716 9.26822 26.9114 9.32853L26.9564 9.3424C27.1381 9.39846 27.3122 9.45216 27.4808 9.50983C28.2328 9.7672 28.6763 10.043 28.7923 10.5815C28.7843 10.5912 28.7655 10.6102 28.7263 10.6351C28.6029 10.7134 28.3693 10.7923 28.0135 10.8371C27.3143 10.9252 26.3002 10.8631 25.1987 10.601Z" fill="#E0E3E8"/>
</svg>
