<svg width="24" height="24" viewBox="0 0 24 24" fill="none" xmlns="http://www.w3.org/2000/svg">
<path d="M13.65 14.35C13.8433 14.1567 14.1567 14.1567 14.35 14.35C14.5433 14.5433 14.5433 14.8567 14.35 15.05L13.4 16H17.5C17.7761 16 18 16.2239 18 16.5C18 16.7761 17.7761 17 17.5 17H13.4L14.35 17.95C14.5433 18.1433 14.5433 18.4567 14.35 18.65C14.1567 18.8433 13.8433 18.8433 13.65 18.65L11.8536 16.8536C11.6583 16.6583 11.6583 16.3417 11.8536 16.1464L13.65 14.35ZM11 12C11 11.7239 11.2239 11.5 11.5 11.5H14.5C14.7761 11.5 15 11.7239 15 12C15 12.2761 14.7761 12.5 14.5 12.5H11.5C11.2239 12.5 11 12.2761 11 12ZM11 8.5C11 8.22386 11.2239 8 11.5 8H14.5C14.7761 8 15 8.22386 15 8.5C15 8.77614 14.7761 9 14.5 9H11.5C11.2239 9 11 8.77614 11 8.5Z" fill="white"/>
<path d="M10.5 18.5C10.5 18.2239 10.2761 18 10 18H8.5C8.22386 18 8 17.7761 8 17.5V16H8.5C8.77614 16 9 15.7761 9 15.5C9 15.2239 8.77614 15 8.5 15H8V12.5H8.5C8.77614 12.5 9 12.2761 9 12C9 11.7239 8.77614 11.5 8.5 11.5H8V9H8.5C8.77614 9 9 8.77614 9 8.5C9 8.22386 8.77614 8 8.5 8H8V6H16.5C16.7761 6 17 6.22386 17 6.5V13.5C17 13.7761 17.2239 14 17.5 14C17.7761 14 18 13.7761 18 13.5V6C18 5.45 17.55 5 17 5H8C7.45 5 7 5.45 7 6V8H6.5C6.22386 8 6 8.22386 6 8.5C6 8.77614 6.22386 9 6.5 9H7V11.5H6.5C6.22386 11.5 6 11.7239 6 12C6 12.2761 6.22386 12.5 6.5 12.5H7V15H6.5C6.22386 15 6 15.2239 6 15.5C6 15.7761 6.22386 16 6.5 16H7V18C7 18.55 7.45 19 8 19H10C10.2761 19 10.5 18.7761 10.5 18.5Z" fill="white"/>
</svg>
