<svg width="12" height="10" viewBox="0 0 12 10" fill="none" xmlns="http://www.w3.org/2000/svg">
<path d="M11.0625 8.75C11.0625 8.89918 11.0032 9.04226 10.8977 9.14775C10.7923 9.25324 10.6492 9.3125 10.5 9.3125H1.5C1.35082 9.3125 1.20774 9.25324 1.10225 9.14775C0.996763 9.04226 0.9375 8.89918 0.9375 8.75V1.25C0.9375 1.10082 0.996763 0.957742 1.10225 0.852252C1.20774 0.746763 1.35082 0.6875 1.5 0.6875C1.64918 0.6875 1.79226 0.746763 1.89775 0.852252C2.00324 0.957742 2.0625 1.10082 2.0625 1.25V5.89062L4.10156 3.85156C4.15382 3.79912 4.21592 3.75751 4.28429 3.72912C4.35266 3.70073 4.42597 3.68612 4.5 3.68612C4.57403 3.68612 4.64734 3.70073 4.71571 3.72912C4.78408 3.75751 4.84618 3.79912 4.89844 3.85156L6 4.95312L8.39062 2.5625H7.875C7.72582 2.5625 7.58274 2.50324 7.47725 2.39775C7.37176 2.29226 7.3125 2.14918 7.3125 2C7.3125 1.85082 7.37176 1.70774 7.47725 1.60225C7.58274 1.49676 7.72582 1.4375 7.875 1.4375H9.75C9.89918 1.4375 10.0423 1.49676 10.1477 1.60225C10.2532 1.70774 10.3125 1.85082 10.3125 2V3.875C10.3125 4.02418 10.2532 4.16726 10.1477 4.27275C10.0423 4.37824 9.89918 4.4375 9.75 4.4375C9.60082 4.4375 9.45774 4.37824 9.35225 4.27275C9.24676 4.16726 9.1875 4.02418 9.1875 3.875V3.35938L6.39844 6.14844C6.34618 6.20088 6.28408 6.24249 6.21571 6.27088C6.14734 6.29927 6.07403 6.31388 6 6.31388C5.92597 6.31388 5.85266 6.29927 5.78429 6.27088C5.71592 6.24249 5.65382 6.20088 5.60156 6.14844L4.5 5.04688L2.0625 7.48438V8.1875H10.5C10.6492 8.1875 10.7923 8.24676 10.8977 8.35225C11.0032 8.45774 11.0625 8.60082 11.0625 8.75Z" fill="#00B7FF"/>
</svg>
