<svg width="24" height="24" viewBox="0 0 24 24" fill="none" xmlns="http://www.w3.org/2000/svg">
<path fill-rule="evenodd" clip-rule="evenodd" d="M5 5.60097C5 5.26963 5.26866 5.00098 5.59999 5.00098H10.3999C10.7312 5.00098 10.9999 5.26963 10.9999 5.60097V10.4009C10.9999 10.7322 10.7312 11.0009 10.3999 11.0009H5.59999C5.26866 11.0009 5 10.7322 5 10.4009V5.60097ZM6.19998 6.20095V9.80089H9.79992V6.20095H6.19998Z" fill="white"/>
<path fill-rule="evenodd" clip-rule="evenodd" d="M5 13.6C5 13.2687 5.26866 13 5.59999 13H10.3999C10.7312 13 10.9999 13.2687 10.9999 13.6V18.3999C10.9999 18.7312 10.7312 18.9999 10.3999 18.9999H5.59999C5.26866 18.9999 5 18.7312 5 18.3999V13.6ZM6.19998 14.2V17.7999H9.79992V14.2H6.19998Z" fill="white"/>
<path fill-rule="evenodd" clip-rule="evenodd" d="M13 7.99995C13 6.34315 14.343 5 16 5C17.6567 5 18.9999 6.34315 18.9999 7.99995C18.9999 9.65688 17.6567 10.9999 16 10.9999C14.343 10.9999 13 9.65688 13 7.99995ZM16 6.19998C15.0058 6.19998 14.2 7.00595 14.2 7.99995C14.2 8.99408 15.0058 9.79991 16 9.79991C16.9939 9.79991 17.7999 8.99408 17.7999 7.99995C17.7999 7.00595 16.9939 6.19998 16 6.19998Z" fill="white"/>
<path fill-rule="evenodd" clip-rule="evenodd" d="M13 13.6C13 13.2687 13.2687 13 13.6 13H18.3999C18.7312 13 18.9999 13.2687 18.9999 13.6V18.3999C18.9999 18.7312 18.7312 18.9999 18.3999 18.9999H13.6C13.2687 18.9999 13 18.7312 13 18.3999V13.6ZM14.2 14.2V17.7999H17.7999V14.2H14.2Z" fill="white"/>
</svg>
