<svg width="32" height="33" viewBox="0 0 32 33" fill="none" xmlns="http://www.w3.org/2000/svg">
<path d="M19 7.49992C19 7.77605 18.776 8 18.4999 8C18.2238 8 18 7.77604 18 7.49992C18 7.2238 18.2238 7 18.4999 7C18.776 7 19 7.22381 19 7.49992Z" fill="#E0E3E8"/>
<path d="M16 7.49992C16 7.77605 15.776 8 15.4999 8C15.2238 8 15 7.77604 15 7.49992C15 7.2238 15.2238 7 15.4999 7C15.776 7 16 7.22381 16 7.49992Z" fill="#E0E3E8"/>
<path d="M17 6.50008C17 6.77621 16.7762 7 16.5 7C16.2238 7 16 6.77619 16 6.50008C16 6.22395 16.2238 6 16.5 6C16.7762 6 17 6.22396 17 6.50008Z" fill="#E0E3E8"/>
<path d="M27.6503 26.3602L26.3021 24.9552C26.3021 24.9102 26.2973 24.8652 26.2926 24.8202L24.9972 13.6751C25.5778 13.52 25.9952 13.085 25.9952 12.5551V12.4552C25.9952 11.0751 24.6758 9.85015 23.0349 9.56514C22.5022 8.60494 20.0265 4.53463 15.8235 4.00506L15.7612 4L15.7036 4.00506C11.5199 4.53494 9.04399 8.56984 8.49727 9.55487C6.81808 9.80987 5.45067 11.0549 5.45067 12.4548V12.5547C5.45067 13.1697 6.00249 13.6548 6.7317 13.7248L5.69533 24.8449C5.69047 24.8849 5.69047 24.925 5.68579 24.9649L4.34718 26.3599C4.00658 26.7149 3.90582 27.2299 4.09294 27.6899C4.29931 28.205 4.78384 28.5149 5.34522 28.4349L7.84004 28.0649C7.86397 28.0749 7.88807 28.0799 7.91686 28.085C10.5461 28.6949 13.2427 29 15.9339 29C18.4862 29 21.0484 28.7201 23.5481 28.175L24.0423 28.0649C24.0616 28.0598 24.076 28.055 24.0951 28.0499L26.6572 28.43C26.7147 28.4399 26.7723 28.445 26.8299 28.445C27.3 28.445 27.7271 28.15 27.9094 27.685C28.0917 27.2249 27.9958 26.7148 27.6503 26.3599V26.3602ZM15.7613 5.00489C18.875 5.4249 20.9958 8.16492 21.8592 9.50002H9.66293C10.5217 8.16501 12.6376 5.43007 15.7608 5.00489H15.7613ZM6.41517 12.5551V12.4552C6.41517 11.5552 7.59546 10.5051 9.12118 10.5051H22.3248C23.8505 10.5051 25.0308 11.5552 25.0308 12.4552V12.5452C25.0212 12.5802 24.9349 12.6451 24.8053 12.6901L20.7942 13.3051C20.559 13.3402 20.2855 13.3751 19.9881 13.4002C18.8606 13.5102 17.335 13.5751 15.6988 13.5751C13.5397 13.5751 11.5582 13.4651 10.3875 13.2802L6.82274 12.7152V12.7252C6.57805 12.7051 6.42942 12.5951 6.41503 12.5551L6.41517 12.5551ZM27.0218 27.3104C27.0074 27.3455 26.969 27.4404 26.7915 27.4505L24.0232 27.0404L23.9273 27.0653C23.8985 27.0753 23.8697 27.0854 23.8409 27.0953L23.3467 27.2054C18.3474 28.3004 13.1274 28.2804 8.10406 27.1103C8.07527 27.1004 8.04648 27.0903 8.01769 27.0803L7.91694 27.0503L5.17258 27.4505C5.04789 27.4505 4.995 27.3455 4.9806 27.3104C4.95667 27.2504 4.94228 27.1553 5.02864 27.0704L6.64558 25.3853V25.1003C6.64558 25.0553 6.64558 25.0103 6.65043 24.9554L7.6868 13.8705L10.2489 14.2755C11.458 14.4654 13.497 14.5854 15.6994 14.5854C17.5082 14.5854 19.1442 14.5104 20.3294 14.3754C20.5453 14.3505 20.7517 14.3254 20.9388 14.2954L24.0525 13.8204L25.3479 24.9357C25.3528 24.9857 25.3528 25.0356 25.3528 25.0806V25.3707L26.9841 27.0707C27.0558 27.1557 27.0462 27.2457 27.0221 27.3108L27.0218 27.3104Z" fill="#E0E3E8"/>
<path d="M16.3125 24.3333C16.1062 24.3333 15.9172 24.276 15.7455 24.1613C15.5735 24.0468 15.4375 23.8958 15.3375 23.7083C15.2687 23.5694 15.2625 23.4306 15.3187 23.2917C15.375 23.1528 15.4812 23.0833 15.6375 23.0833C15.7 23.0833 15.7625 23.1042 15.825 23.1458C15.8875 23.1875 15.9531 23.2569 16.0219 23.3542C16.0531 23.4028 16.0952 23.4393 16.1482 23.4638C16.2015 23.4879 16.2562 23.5 16.3125 23.5C16.4187 23.5 16.5079 23.46 16.5799 23.38C16.6516 23.3003 16.6875 23.2014 16.6875 23.0833C16.6875 22.9653 16.6516 22.8664 16.5799 22.7867C16.5079 22.7067 16.4187 22.6667 16.3125 22.6667H13.125C13.0187 22.6667 12.9298 22.6267 12.858 22.5467C12.786 22.4669 12.75 22.3681 12.75 22.25C12.75 22.1319 12.786 22.0329 12.858 21.9529C12.9298 21.8732 13.0187 21.8333 13.125 21.8333H16.3125C16.625 21.8333 16.8906 21.9549 17.1094 22.1979C17.3281 22.441 17.4375 22.7361 17.4375 23.0833C17.4375 23.4306 17.3281 23.7257 17.1094 23.9688C16.8906 24.2118 16.625 24.3333 16.3125 24.3333ZM13.125 20.1667C13.0187 20.1667 12.9298 20.1267 12.858 20.0467C12.786 19.9669 12.75 19.8681 12.75 19.75C12.75 19.6319 12.786 19.5329 12.858 19.4529C12.9298 19.3732 13.0187 19.3333 13.125 19.3333H17.8125C17.975 19.3333 18.1094 19.2743 18.2156 19.1562C18.3219 19.0382 18.375 18.8889 18.375 18.7083C18.375 18.5278 18.3219 18.3785 18.2156 18.2604C18.1094 18.1424 17.975 18.0833 17.8125 18.0833C17.7062 18.0833 17.611 18.1094 17.5267 18.1617C17.4422 18.2136 17.375 18.2882 17.325 18.3854C17.275 18.4896 17.2156 18.5694 17.1469 18.625C17.0781 18.6806 17.0094 18.7083 16.9406 18.7083C16.8094 18.7083 16.7062 18.6563 16.6312 18.5521C16.5562 18.4479 16.5375 18.3368 16.575 18.2187C16.6625 17.9271 16.8172 17.6926 17.0392 17.5154C17.261 17.3385 17.5187 17.25 17.8125 17.25C18.1812 17.25 18.4922 17.3906 18.7455 17.6717C18.9985 17.9531 19.125 18.2986 19.125 18.7083C19.125 19.1181 18.9985 19.4635 18.7455 19.7446C18.4922 20.026 18.1812 20.1667 17.8125 20.1667H13.125ZM19.4812 23.375C19.35 23.4375 19.2265 23.4324 19.1107 23.3596C18.9952 23.2865 18.9375 23.1667 18.9375 23C18.9375 22.9236 18.9625 22.8489 19.0125 22.7758C19.0625 22.7031 19.1344 22.6389 19.2281 22.5833C19.3156 22.5278 19.3827 22.4531 19.4295 22.3592C19.4765 22.2656 19.5 22.1597 19.5 22.0417C19.5 21.8611 19.4469 21.7118 19.3406 21.5938C19.2344 21.4757 19.1 21.4167 18.9375 21.4167H13.125C13.0187 21.4167 12.9298 21.3767 12.858 21.2967C12.786 21.2169 12.75 21.1181 12.75 21C12.75 20.8819 12.786 20.7829 12.858 20.7029C12.9298 20.6232 13.0187 20.5833 13.125 20.5833H18.9375C19.3062 20.5833 19.6172 20.7239 19.8705 21.005C20.1235 21.2864 20.25 21.6319 20.25 22.0417C20.25 22.3403 20.1797 22.6076 20.0392 22.8438C19.8985 23.0799 19.7125 23.2569 19.4812 23.375Z" fill="#E0E3E8"/>
</svg>
