<svg width="24" height="24" viewBox="0 0 24 24" fill="none" xmlns="http://www.w3.org/2000/svg">
<path d="M17.8126 4.54102H6.83553C6.39877 4.54102 5.98004 4.70941 5.67117 5.00911C5.36244 5.30892 5.18897 5.7154 5.18897 6.13938V18.9263C5.18872 19.0621 5.24201 19.1929 5.3377 19.2918C5.4335 19.3909 5.56459 19.4506 5.70427 19.4589C5.84393 19.4673 5.98164 19.4235 6.08909 19.3366L9.03099 16.9549L11.6491 19.0541C11.8463 19.2136 12.0949 19.301 12.3516 19.301C12.6082 19.301 12.8568 19.2136 13.054 19.0541L15.6172 16.9549L18.5591 19.3366C18.6579 19.4159 18.7821 19.4593 18.9104 19.4591C18.9899 19.4594 19.0685 19.4431 19.1409 19.4111C19.2361 19.3683 19.3168 19.2999 19.3732 19.2139C19.4296 19.128 19.4595 19.0282 19.4592 18.9263V6.13938C19.4592 5.71541 19.2858 5.30893 18.977 5.00911C18.6682 4.70942 18.2494 4.54102 17.8127 4.54102L17.8126 4.54102ZM18.3615 17.7916L16.3197 16.1399C16.1224 15.9805 15.8739 15.893 15.6172 15.893C15.3606 15.893 15.112 15.9805 14.9147 16.1399L12.3241 18.2337L9.7115 16.1346C9.51425 15.9751 9.26567 15.8877 9.00903 15.8877C8.75224 15.8877 8.50367 15.9751 8.30643 16.1346L6.28671 17.7862V6.1395C6.28671 5.99821 6.34453 5.86264 6.44744 5.76274C6.55035 5.66285 6.69002 5.60671 6.83556 5.60671H17.8127C17.9582 5.60671 18.0979 5.66285 18.2008 5.76274C18.3037 5.86264 18.3615 5.99821 18.3615 6.1395L18.3615 17.7916ZM16.7149 7.73774C16.7149 7.87902 16.6571 8.0146 16.5542 8.11449C16.4513 8.21439 16.3116 8.27052 16.1661 8.27052H8.4821C8.28595 8.27052 8.10477 8.16896 8.00676 8.00413C7.90875 7.8393 7.90875 7.63617 8.00676 7.47134C8.10477 7.30651 8.28596 7.20495 8.4821 7.20495H16.1661C16.3116 7.20495 16.4513 7.26108 16.5542 7.36098C16.6571 7.46088 16.7149 7.59645 16.7149 7.73774ZM16.7149 10.4017C16.7149 10.543 16.6571 10.6785 16.5542 10.7784C16.4513 10.8783 16.3116 10.9345 16.1661 10.9345H8.4821C8.28595 10.9345 8.10477 10.8329 8.00676 10.6681C7.90875 10.5032 7.90875 10.3001 8.00676 10.1353C8.10477 9.97045 8.28596 9.86888 8.4821 9.86888H16.1661C16.3116 9.86888 16.4513 9.92502 16.5542 10.0249C16.6571 10.1248 16.7149 10.2604 16.7149 10.4017ZM16.7149 13.0656C16.7149 13.2069 16.6571 13.3425 16.5542 13.4424C16.4513 13.5423 16.3116 13.5984 16.1661 13.5984H8.4821C8.28595 13.5984 8.10477 13.4968 8.00676 13.332C7.90875 13.1672 7.90875 12.964 8.00676 12.7992C8.10477 12.6344 8.28596 12.5328 8.4821 12.5328H16.1661C16.3116 12.5328 16.4513 12.589 16.5542 12.6888C16.6571 12.7887 16.7149 12.9243 16.7149 13.0656Z" fill="#E0E3E8"/>
</svg>
