<svg width="24" height="24" viewBox="0 0 24 24" fill="none" xmlns="http://www.w3.org/2000/svg">
<path d="M11.5 5.00008C11.4048 5.00018 11.3119 5.02917 11.2336 5.08337L4.2019 9.92111C4.09172 9.99749 4.01941 10.1173 4.0034 10.2504C3.98729 10.3834 4.02893 10.517 4.11787 10.6173C4.20671 10.7177 4.33427 10.7752 4.46831 10.7753H5.04968V19.5331C5.0502 19.6574 5.10001 19.7764 5.18833 19.864C5.27654 19.9516 5.39603 20.0005 5.52036 20H17.4796C17.604 20.0005 17.7235 19.9516 17.8117 19.864C17.9 19.7764 17.9498 19.6574 17.9503 19.533V10.7752H18.5317C18.6657 10.7751 18.7933 10.7176 18.8821 10.6172C18.9711 10.5169 19.0127 10.3833 18.9966 10.2503C18.9806 10.1172 18.9083 9.99741 18.7981 9.92103L11.7664 5.08329C11.6881 5.02909 11.5953 5.00018 11.5 5.00008ZM11.5 6.03834L17.0228 9.83788L5.97725 9.83777L11.5 6.03834ZM5.98716 10.7751H17.0126V19.0623H15.0331V14.4498C15.0336 14.3254 14.9845 14.2058 14.8968 14.1176C14.809 14.0293 14.6898 13.9795 14.5653 13.9793H8.43359C8.30928 13.9798 8.19031 14.0296 8.10271 14.1179C8.01513 14.2061 7.96616 14.3255 7.96668 14.4498V19.0623L5.98714 19.0624L5.98716 10.7751ZM8.90406 14.9169H14.0947V19.0625H8.90432L8.90406 14.9169Z" fill="white"/>
<ellipse cx="11.5" cy="12.5" rx="1.5" ry="0.5" fill="white"/>
</svg>
