<svg width="24" height="24" viewBox="0 0 24 24" fill="none" xmlns="http://www.w3.org/2000/svg">
<path d="M16.9198 9.24401V10.1006V12.1478V14.6258V16.75C16.9198 17.0874 16.9214 17.4248 16.9198 17.7622C16.9198 17.7884 16.9182 17.8146 16.9165 17.8391C16.9231 17.7949 16.928 17.7523 16.9345 17.7081C16.928 17.7589 16.9149 17.8064 16.8969 17.8555L16.946 17.7376C16.9329 17.7671 16.9165 17.7933 16.9034 17.8228C16.8952 17.8391 16.8576 17.885 16.9116 17.8162C16.9673 17.7442 16.9231 17.8015 16.91 17.8146C16.9001 17.8244 16.8903 17.8326 16.8805 17.8424C16.833 17.8899 16.9263 17.7998 16.9313 17.8031C16.9329 17.8064 16.8477 17.849 16.8395 17.8522C16.8788 17.8359 16.9181 17.8195 16.9575 17.8031C16.9165 17.8195 16.8772 17.8293 16.833 17.8359C16.8772 17.8293 16.9198 17.8244 16.964 17.8179C16.8592 17.8293 16.7511 17.8228 16.6463 17.8228H15.9306H13.5722H10.706H8.23463C7.84156 17.8228 7.44849 17.826 7.05543 17.8228C7.02922 17.8228 7.00138 17.8211 6.97517 17.8179C7.0194 17.8244 7.06198 17.8293 7.1062 17.8359C7.05379 17.8277 7.00629 17.8146 6.9588 17.7949L7.07672 17.8441C7.04887 17.831 7.01939 17.8064 6.98991 17.7966C6.95388 17.7851 7.06198 17.8637 7.03741 17.8342C7.02594 17.8211 7.00957 17.8097 6.9981 17.7982C6.99483 17.7949 6.96698 17.7687 6.96862 17.7654C6.97026 17.7605 7.04068 17.8735 7.00629 17.8129C6.98827 17.7802 6.97026 17.7507 6.95552 17.7163L7.00465 17.8342C6.98827 17.7933 6.97681 17.7507 6.97026 17.7081C6.97681 17.7523 6.98172 17.7949 6.98828 17.8391C6.97517 17.7179 6.98336 17.5918 6.98336 17.4706V16.6223V15.3595V13.8069V12.1118V10.3921V8.79687V7.45225V6.48595C6.98336 6.33691 6.98172 6.18787 6.98336 6.04047C6.98336 6.01263 6.985 5.98478 6.98828 5.95858C6.98172 6.0028 6.97681 6.04538 6.97026 6.0896C6.97681 6.04538 6.98828 6.00444 7.00465 5.96349L6.95552 6.08141C6.96862 6.05193 6.985 6.02409 6.99974 5.99625C7.00957 5.97987 7.0456 5.93401 6.99319 6.0028C6.93914 6.07486 6.98336 6.01754 6.9981 6.00444C7.00138 6.00116 7.02758 5.97496 7.02922 5.97496C7.03414 5.97823 6.92113 6.04702 6.98173 6.01263C7.01285 5.99461 7.04396 5.97659 7.07672 5.96185C7.03741 5.97823 6.99811 5.99461 6.9588 6.01099C7.00793 5.99133 7.05543 5.97823 7.1062 5.97168C7.06198 5.97823 7.0194 5.98314 6.97518 5.9897C7.2061 5.96677 7.44851 5.98478 7.67944 5.98478H9.25663H11.1859H12.8516C13.1218 5.98478 13.3937 5.99297 13.6639 5.98478H13.6754C13.5591 5.93729 13.4445 5.88815 13.3282 5.84066C13.7507 6.26484 14.1733 6.68903 14.5958 7.11321C15.2657 7.78471 15.9339 8.45621 16.6037 9.12771C16.7577 9.2833 16.9133 9.4389 17.0672 9.59283C17.249 9.77462 17.5832 9.78773 17.7617 9.59283C17.9418 9.3963 17.9549 9.0933 17.7617 8.89839C17.3211 8.45618 16.8789 8.01399 16.4383 7.57013C15.7603 6.88881 15.0806 6.20749 14.4026 5.52617C14.3092 5.43118 14.2142 5.33782 14.1209 5.24284C14.0259 5.14784 13.9456 5.05613 13.8064 5.01846C13.7261 4.99553 13.641 5.00044 13.5575 5.00044H13.2315H10.5718H7.73676H7.07347C6.48715 5.00208 6.00399 5.45248 6.00073 6.04536C5.99909 6.4712 6.00073 6.89865 6.00073 7.32448V9.95806V13.1092V15.9409V17.6148V17.7556C6.00237 18.0406 6.11537 18.3338 6.33321 18.5254C6.54285 18.7088 6.78851 18.8071 7.06859 18.8087H7.24056H9.17314H12.2081H15.1545H16.8217C16.8627 18.8087 16.9036 18.8087 16.9429 18.8071C17.4916 18.7694 17.8978 18.3207 17.9076 17.7736C17.9092 17.6393 17.9076 17.505 17.9076 17.3707V15.0042V11.8809V9.58797V9.24731C17.9076 8.99018 17.6816 8.74451 17.4163 8.75598C17.1444 8.76417 16.92 8.96889 16.92 9.24404L16.9198 9.24401Z" fill="white"/>
<path d="M17.4118 8.7673H16.3112H14.5686C14.4244 8.7673 14.2738 8.77876 14.1297 8.76238C14.1739 8.76893 14.2165 8.77385 14.2607 8.7804C14.2165 8.77385 14.1755 8.76238 14.1346 8.746C14.1739 8.76238 14.2132 8.77876 14.2525 8.79514C14.223 8.78204 14.1952 8.76566 14.1673 8.75092C14.1509 8.74273 14.1051 8.70506 14.1739 8.75747C14.2459 8.81315 14.1886 8.76729 14.1755 8.75419C14.1722 8.75092 14.1444 8.72471 14.146 8.72307C14.1493 8.7198 14.2181 8.82953 14.1837 8.77057C14.1657 8.73945 14.146 8.70997 14.1313 8.67557C14.1477 8.71488 14.164 8.75419 14.1804 8.7935C14.1608 8.746 14.1477 8.69687 14.1395 8.64609C14.146 8.69032 14.1509 8.7329 14.1575 8.77712C14.1444 8.65756 14.1526 8.53472 14.1526 8.41681V7.65523V5.89787V5.49172C14.1526 5.23458 13.9266 4.98892 13.6613 5.00039C13.3943 5.01185 13.1699 5.21658 13.1699 5.49172V6.72007V8.49216C13.1699 8.75093 13.1748 8.99661 13.3108 9.23245C13.4942 9.54855 13.8349 9.74507 14.1985 9.75163H14.3033H15.9444C16.4259 9.75163 16.9057 9.75818 17.3873 9.75163H17.4135C17.6706 9.75163 17.9163 9.52561 17.9048 9.2603C17.8917 8.9917 17.687 8.76732 17.4118 8.76732L17.4118 8.7673Z" fill="white"/>
<path d="M15.0851 14.9748H14.4644H12.9641H11.156H9.58538C9.33152 14.9748 9.07767 14.9699 8.82545 14.9748H8.81398C8.55685 14.9748 8.31118 15.2009 8.32265 15.4662C8.33412 15.7331 8.53884 15.9575 8.81398 15.9575H9.43472H10.9349H12.7431H14.3137C14.5675 15.9575 14.8214 15.9624 15.0736 15.9575H15.0851C15.3422 15.9575 15.5879 15.7315 15.5764 15.4662C15.565 15.1992 15.3602 14.9748 15.0851 14.9748Z" fill="white"/>
<path fill-rule="evenodd" clip-rule="evenodd" d="M11.2685 8.17133H10.472C10.5071 8.21783 10.5401 8.266 10.5708 8.31549C10.6858 8.501 10.7627 8.71098 10.8027 8.92838H11.3478H11.6826C11.7689 8.92838 11.845 8.96592 11.9072 9.02626C11.9693 9.08726 11.996 9.1771 11.9998 9.26359C12.0036 9.3474 11.9623 9.44259 11.9072 9.50092C11.8495 9.56126 11.7638 9.59881 11.6826 9.59881H11.677C11.5865 9.60015 11.4957 9.5997 11.4049 9.59925C11.3594 9.59903 11.314 9.59881 11.2685 9.59881H10.8035C10.7713 9.76962 10.7149 9.93551 10.6387 10.0895C10.5061 10.357 10.3019 10.5822 10.0641 10.7472C9.81733 10.9181 9.52305 11.01 9.2294 11.0241C9.18347 11.0263 9.13738 11.027 9.09124 11.0271C9.24706 11.1801 9.40287 11.3335 9.55869 11.4869L9.55911 11.4873L9.56871 11.4967C9.68133 11.6073 9.79379 11.7179 9.90625 11.8285L9.90638 11.8287L9.90663 11.8289C10.017 11.9374 10.1273 12.0459 10.2378 12.1544C10.33 12.2449 10.422 12.3354 10.514 12.426L10.514 12.426C10.6069 12.5175 10.6998 12.6089 10.7928 12.7002C10.8313 12.7382 10.8699 12.7761 10.9085 12.8141L10.9087 12.8143H10.9088C10.9471 12.852 10.9855 12.8897 11.0237 12.9275H11.0236C11.0858 12.9885 11.1131 13.0776 11.1169 13.1648C11.1207 13.2546 11.0795 13.3384 11.0243 13.4021C10.9704 13.4638 10.8778 13.5 10.7998 13.5C10.7154 13.5 10.6361 13.4618 10.5752 13.4021C10.5746 13.4015 10.5738 13.4008 10.573 13.4001C10.5722 13.3994 10.5714 13.3988 10.5708 13.3981C10.4955 13.3251 10.4208 13.2512 10.346 13.1772L10.3459 13.177C10.3162 13.1477 10.2866 13.1183 10.2569 13.089C10.1513 12.9851 10.0455 12.8812 9.93974 12.7772C9.83398 12.6733 9.72822 12.5694 9.62262 12.4655C9.38796 12.2342 9.15328 12.0036 8.91862 11.7729C8.83093 11.6869 8.74323 11.6007 8.65554 11.5145C8.56628 11.4267 8.47702 11.3389 8.38777 11.2513C8.36747 11.2315 8.34717 11.2116 8.32686 11.1916C8.30657 11.1717 8.28628 11.1518 8.26599 11.132C8.1994 11.0663 8.16198 10.9744 8.16071 10.8779C8.16029 10.8363 8.16043 10.7948 8.16057 10.7532C8.16064 10.7324 8.16071 10.7116 8.16071 10.6908C8.16071 10.5091 8.30658 10.3556 8.47783 10.3556H8.58312H9.00298C9.02018 10.3556 9.03739 10.3557 9.05459 10.3558C9.13891 10.3561 9.22319 10.3565 9.30715 10.3478C9.39527 10.332 9.48148 10.3069 9.56501 10.2732C9.64715 10.2332 9.72509 10.185 9.79825 10.1292C9.86658 10.0695 9.92912 10.0034 9.98558 9.9312C10.0384 9.85385 10.084 9.77144 10.1218 9.6846C10.132 9.65628 10.1414 9.62768 10.15 9.59881H9.45774H8.6529H8.31802C8.23241 9.59881 8.15566 9.56059 8.0935 9.50092C8.03135 9.43992 8.00471 9.35008 8.0009 9.26359C7.9971 9.17979 8.03832 9.08459 8.0935 9.02626C8.15121 8.96592 8.23684 8.92838 8.31802 8.92838H8.32373C8.41419 8.92703 8.50493 8.92748 8.59577 8.92793C8.64122 8.92815 8.6867 8.92838 8.73218 8.92838H9.57318H10.1498C10.1413 8.89964 10.132 8.87118 10.1218 8.843C10.084 8.75617 10.0384 8.67378 9.98559 8.59644C9.92914 8.52422 9.8666 8.45811 9.79827 8.39843C9.7251 8.3426 9.64714 8.29438 9.56498 8.2544C9.48162 8.22077 9.39557 8.19575 9.30764 8.17988C9.24502 8.17343 9.18203 8.172 9.11903 8.172H8.31736C8.23111 8.172 8.155 8.13446 8.09284 8.07412C8.03069 8.01311 8.00405 7.92328 8.00024 7.83679C7.99644 7.75298 8.03766 7.65778 8.09284 7.59946L8.09513 7.5971C8.15281 7.53774 8.23759 7.50089 8.31802 7.50089H8.32373C8.41415 7.49955 8.50485 7.5 8.59565 7.50045L8.59577 7.50045C8.64122 7.50067 8.6867 7.50089 8.73218 7.50089H9.57318H10.5429H11.3478H11.6826C11.7689 7.50089 11.845 7.53844 11.9072 7.59878C11.9693 7.65978 11.996 7.74962 11.9998 7.83611C12.0036 7.91991 11.9623 8.01511 11.9072 8.07344C11.8495 8.13378 11.7638 8.17133 11.6826 8.17133H11.677C11.5865 8.17266 11.4957 8.17222 11.4049 8.17177C11.3594 8.17155 11.314 8.17133 11.2685 8.17133Z" fill="white"/>
</svg>
