<svg width="24" height="24" viewBox="0 0 24 24" fill="none" xmlns="http://www.w3.org/2000/svg">
<path d="M4.00769 7.00077C3.86789 7.01511 3.73837 7.07995 3.64455 7.18264C3.55074 7.28519 3.49922 7.41849 3.50001 7.55631V16.4445C3.50001 16.5918 3.55969 16.7331 3.66602 16.8373C3.77222 16.9415 3.91637 17 4.0667 17H19.9333C20.0836 17 20.2278 16.9415 20.334 16.8373C20.4403 16.7331 20.5 16.5918 20.5 16.4445V7.55631C20.5 7.40894 20.4403 7.26763 20.334 7.16352C20.2278 7.05929 20.0836 7.00077 19.9333 7.00077H4.0667C4.04707 6.99974 4.02731 6.99974 4.00768 7.00077L4.00769 7.00077ZM4.63341 8.11172H9.16673V8.66727H7.63795C7.62016 8.66649 7.6025 8.66649 7.58485 8.66727C7.46258 8.67902 7.34755 8.72939 7.25703 8.8109C7.16652 8.89227 7.10551 9.00025 7.08312 9.1187C6.95254 9.80029 6.38915 10.3494 5.66052 10.4842C5.53126 10.5085 5.41466 10.5759 5.33073 10.6753C5.24667 10.7745 5.20055 10.8992 5.20003 11.0283V12.9668C5.20055 13.0957 5.24667 13.2204 5.33073 13.3198C5.41466 13.419 5.53126 13.4865 5.66052 13.5107C6.38902 13.6455 6.95255 14.1948 7.08312 14.8763C7.10657 15.0041 7.17482 15.1197 7.27614 15.2031C7.37759 15.2867 7.50553 15.3328 7.63796 15.3335H9.16674V15.889H4.63343L4.63341 8.11172ZM10.3001 8.11172H13.7V15.8889H10.3001V8.11172ZM14.8334 8.11172H19.3667V15.8889H14.8334V15.3333H16.3621C16.4946 15.3327 16.6225 15.2866 16.724 15.203C16.8253 15.1195 16.8935 15.0039 16.917 14.8762C17.0476 14.1946 17.6111 13.6454 18.3396 13.5105C18.4688 13.4864 18.5855 13.4188 18.6694 13.3196C18.7534 13.2203 18.7996 13.0955 18.8001 12.9666V11.0281C18.7996 10.8991 18.7534 10.7743 18.6694 10.6751C18.5855 10.5758 18.4688 10.5084 18.3396 10.4841C17.611 10.3492 17.0476 9.80014 16.917 9.11856C16.8924 8.99185 16.8236 8.87753 16.7223 8.79513C16.6211 8.71285 16.4938 8.66751 16.3622 8.66713H14.8334L14.8334 8.11172ZM8.02766 9.77832H9.16683V14.2224H8.03343C7.73908 13.4561 7.12549 12.8657 6.33351 12.579V11.4159C7.12262 11.1301 7.73226 10.5411 8.02766 9.77838V9.77832ZM14.8334 9.77832H15.9725C16.2679 10.541 16.8776 11.13 17.6667 11.4158V12.579C16.8747 12.8656 16.2611 13.456 15.9668 14.2223H14.8334V9.77832Z" fill="white"/>
</svg>
