<svg width="24" height="24" viewBox="0 0 24 24" fill="none" xmlns="http://www.w3.org/2000/svg">
<path d="M8.48498 5.00001H5.58082C5.37325 5.00001 5.18151 5.10998 5.07779 5.28847C4.97407 5.46695 4.97407 5.68691 5.07779 5.86539C5.18151 6.04387 5.37326 6.15385 5.58082 6.15385H7.90415V14.2308C7.28156 14.2308 6.70631 14.5607 6.39515 15.0962C6.08386 15.6316 6.08386 16.2915 6.39515 16.8269C6.70631 17.3624 7.28156 17.6923 7.90415 17.6923H9.17265C9.10394 17.8771 9.06776 18.0722 9.06582 18.2692C9.06582 18.8876 9.39799 19.459 9.93706 19.7681C10.4761 20.0773 11.1405 20.0773 11.6796 19.7681C12.2186 19.459 12.5508 18.8876 12.5508 18.2692C12.5489 18.0722 12.5127 17.8771 12.444 17.6923H14.4002H14.4001C14.3314 17.8771 14.2952 18.0722 14.2933 18.2692C14.2933 18.8876 14.6255 19.459 15.1645 19.7681C15.7036 20.0773 16.3679 20.0773 16.907 19.7681C17.4461 19.459 17.7783 18.8876 17.7783 18.2692C17.7763 18.0722 17.7402 17.8771 17.6714 17.6923H17.7783C17.9858 17.6923 18.1776 17.5823 18.2813 17.4039C18.385 17.2254 18.385 17.0054 18.2813 16.8269C18.1776 16.6485 17.9858 16.5385 17.7783 16.5385H7.90414C7.69657 16.5385 7.50482 16.4285 7.4011 16.25C7.29738 16.0715 7.29738 15.8516 7.4011 15.6731C7.50482 15.4946 7.69658 15.3846 7.90414 15.3846H9.0658C9.10521 15.381 9.14424 15.3733 9.18197 15.3616C9.21969 15.3733 9.25872 15.381 9.29813 15.3846H16.5306C17.15 15.3833 17.7224 15.0568 18.0356 14.5262L19.7322 11.6346C19.7381 11.6248 19.7374 11.6127 19.7427 11.6023H19.7426C19.764 11.5565 19.7793 11.5079 19.788 11.4581C19.7963 11.4364 19.8033 11.4143 19.8088 11.3918L19.9941 9.18039C20.034 8.69838 19.8691 8.22177 19.5393 7.86609C19.2095 7.51028 18.7449 7.30783 18.258 7.30769H9.06592V5.57692C9.06592 5.42394 9.00472 5.27713 8.89582 5.16896C8.78692 5.06078 8.63911 5 8.48509 5L8.48498 5.00001ZM11.3891 18.2692C11.3891 18.4222 11.3279 18.569 11.219 18.6772C11.1101 18.7854 10.9623 18.8462 10.8083 18.8462C10.6543 18.8462 10.5065 18.7854 10.3976 18.6772C10.2887 18.569 10.2275 18.4222 10.2275 18.2692C10.2275 18.1163 10.2887 17.9694 10.3976 17.8613C10.5065 17.7531 10.6543 17.6923 10.8083 17.6923C10.9623 17.6923 11.1101 17.7531 11.219 17.8613C11.3279 17.9694 11.3891 18.1163 11.3891 18.2692ZM16.6166 18.2692C16.6166 18.4222 16.5554 18.569 16.4465 18.6772C16.3376 18.7854 16.1898 18.8462 16.0358 18.8462C15.8818 18.8462 15.734 18.7854 15.6251 18.6772C15.5162 18.569 15.455 18.4222 15.455 18.2692C15.455 18.1163 15.5162 17.9694 15.6251 17.8613C15.734 17.7531 15.8818 17.6923 16.0358 17.6923C16.1898 17.6923 16.3376 17.7531 16.4465 17.8613C16.5554 17.9694 16.6166 18.1163 16.6166 18.2692ZM9.06581 11.9231H13.1316V14.2308H9.29814C9.25873 14.2344 9.2197 14.2421 9.18198 14.2538C9.14425 14.2421 9.10522 14.2344 9.06581 14.2308V11.9231ZM17.0325 13.9423C16.9289 14.1204 16.7377 14.2304 16.5306 14.2308H14.2933V11.9231H18.219L17.0325 13.9423ZM18.6862 8.6455H18.686C18.7966 8.76385 18.8515 8.92315 18.8371 9.084L18.6959 10.7692H14.2932V8.46148H18.2578C18.4206 8.46084 18.5761 8.52844 18.6859 8.64782L18.6862 8.6455ZM13.1314 8.46148V10.7692H9.06561V8.46148H13.1314Z" fill="white"/>
</svg>
