<svg width="32" height="33" viewBox="0 0 32 33" fill="none" xmlns="http://www.w3.org/2000/svg">
<path d="M16.2462 16.3116C15.411 16.3106 14.5941 16.5572 13.8988 17.0202C13.2036 17.4832 12.661 18.142 12.3398 18.913C12.2978 19.0137 12.2976 19.1269 12.339 19.2277C12.3807 19.3287 12.4607 19.4088 12.5614 19.4505C12.6123 19.4711 12.6666 19.4824 12.7215 19.4834C12.8872 19.4826 13.0361 19.3822 13.099 19.2289C13.3576 18.6076 13.7946 18.0769 14.3548 17.7036C14.915 17.3304 15.5732 17.1316 16.2462 17.1322C16.4728 17.1322 16.6565 16.9485 16.6565 16.7219C16.6565 16.4952 16.4728 16.3115 16.2462 16.3115L16.2462 16.3116Z" fill="#E0E3E8"/>
<path d="M7.25983 14.4653C6.30571 14.4663 5.39129 14.8468 4.71789 15.5224C4.04448 16.1982 3.66724 17.114 3.66944 18.0679C3.66944 18.2947 3.85317 18.4783 4.07977 18.4783C4.30638 18.4783 4.4901 18.2947 4.4901 18.0679C4.4879 17.3316 4.77862 16.6245 5.29814 16.1029C5.81767 15.5809 6.52354 15.287 7.25983 15.286C7.48643 15.286 7.67016 15.1023 7.67016 14.8757C7.67016 14.6491 7.48643 14.4653 7.25983 14.4653Z" fill="#E0E3E8"/>
<path d="M26.02 14.7319C25.3687 14.4712 24.655 14.4085 23.9683 14.5513C23.7464 14.5948 23.6015 14.8094 23.6442 15.0314C23.6648 15.1388 23.7277 15.2336 23.8187 15.2945C23.9096 15.3552 24.021 15.3772 24.1282 15.3556C24.6558 15.2448 25.2042 15.2933 25.7041 15.495C26.1132 15.6551 26.4788 15.9096 26.7708 16.2377C26.8487 16.3263 26.9607 16.3772 27.0785 16.3774C27.1783 16.3772 27.2747 16.3407 27.3494 16.2748C27.4327 16.2047 27.4846 16.1041 27.494 15.9957C27.5033 15.8871 27.469 15.7793 27.3987 15.6962C27.0216 15.2706 26.5492 14.9403 26.02 14.7319Z" fill="#E0E3E8"/>
<path d="M26.894 13.1193C27.2737 12.4561 27.4719 11.7046 27.4684 10.9404C27.4694 9.66938 26.9243 8.45922 25.9715 7.61794C25.0187 6.77666 23.7504 6.38536 22.4893 6.54385C21.2281 6.70213 20.0959 7.39497 19.3808 8.44562C18.2781 7.67687 16.9313 7.34004 15.5965 7.49935C14.2616 7.65864 13.0318 8.30278 12.1408 9.30937C11.25 10.316 10.7599 11.6149 10.7639 12.9592C10.7621 13.1883 10.7757 13.4173 10.805 13.6444C9.7289 12.8308 8.39092 12.4421 7.04652 12.5525C5.70192 12.6631 4.44549 13.2652 3.51687 14.2435C2.58804 15.2221 2.05245 16.5083 2.01219 17.8567C1.97212 19.2051 2.43013 20.5211 3.29867 21.5531C4.16745 22.5851 5.38597 23.2609 6.72134 23.4515C8.05691 23.6418 9.41571 23.3337 10.5383 22.5855C11.1142 24.1086 12.2756 25.3378 13.7637 25.999C15.2517 26.6602 16.9425 26.6983 18.4588 26.1048C19.9751 25.5112 21.1907 24.3355 21.8346 22.84C23.1287 23.5663 24.6618 23.737 26.084 23.3133C27.5061 22.8893 28.6956 21.907 29.3808 20.5906C30.0658 19.2743 30.188 17.7364 29.7194 16.3282C29.2508 14.9203 28.2314 13.7625 26.894 13.1193L26.894 13.1193ZM23.037 7.30491C24.0007 7.30611 24.925 7.68939 25.6064 8.371C26.288 9.0526 26.6713 9.97667 26.6724 10.9406C26.6746 11.606 26.4899 12.2585 26.1389 12.8239C24.6625 12.3333 23.0466 12.4974 21.6992 13.2753C21.6992 13.1645 21.7196 13.0538 21.7196 12.9389L21.7198 12.9387C21.7192 11.431 21.0955 9.99068 19.9963 8.95865C20.6645 7.92821 21.8088 7.30588 23.037 7.30491ZM16.2376 8.24876C17.4804 8.25097 18.6717 8.74585 19.5501 9.62501C20.4287 10.5042 20.9226 11.6959 20.9235 12.9387C20.9223 13.2687 20.8853 13.5975 20.8127 13.9194C20.7502 13.9699 20.6913 14.0248 20.6364 14.0835C20.2433 14.4588 19.9097 14.892 19.6475 15.368C18.5732 14.6425 17.2951 14.2791 15.9998 14.3307C14.7045 14.3824 13.4595 14.8465 12.4463 15.6551C12.3 15.3421 12.1241 15.044 11.921 14.7647C11.6741 14.1877 11.5485 13.5662 11.5517 12.9386C11.5527 11.6959 12.0468 10.5041 12.9251 9.62497C13.8035 8.74579 14.9948 8.25097 16.2376 8.24876ZM7.5101 22.7086C5.88761 22.708 4.38072 21.8679 3.52724 20.488C2.6735 19.1082 2.59456 17.3847 3.31827 15.9325C4.04198 14.4804 5.46547 13.5059 7.08115 13.3566C8.69682 13.2073 10.2748 13.9045 11.2523 15.1996C11.4731 15.4886 11.6565 15.8043 11.7981 16.1393L11.8228 16.1886V16.2132V16.213C10.7324 17.345 10.1236 18.8556 10.124 20.4271C10.1256 20.8843 10.1779 21.3397 10.2798 21.7853C9.47981 22.3826 8.50869 22.7064 7.5101 22.7086ZM16.2378 25.7288C14.8303 25.7298 13.4799 25.1714 12.4841 24.1766C11.4881 23.1818 10.9286 21.832 10.9281 20.4245C10.9277 19.0168 11.4868 17.6668 12.4821 16.6714C13.4775 15.6763 14.8275 15.1173 16.2352 15.1175C17.6427 15.1179 18.9925 15.6777 19.9873 16.6734C20.982 17.6692 21.5404 19.0196 21.5392 20.4271C21.5372 21.8326 20.9778 23.1798 19.9841 24.1736C18.9905 25.1674 17.6433 25.7265 16.2378 25.7288ZM24.4444 22.7086C23.6206 22.7088 22.8111 22.4922 22.0974 22.0809C22.2517 21.5473 22.3304 20.9949 22.3312 20.4396C22.3306 18.6988 21.5837 17.0419 20.2796 15.8891C20.514 15.4294 20.8248 15.0133 21.1988 14.6581C21.2658 14.5839 21.3401 14.5166 21.4202 14.4569L21.4695 14.4118C22.1181 13.8885 22.893 13.5453 23.7165 13.417C24.54 13.2888 25.3827 13.38 26.1597 13.6813C27.5135 14.2243 28.5367 15.3671 28.9276 16.7722C29.3185 18.1773 29.0322 19.6844 28.1532 20.8485C27.2742 22.0123 25.903 22.7002 24.4444 22.7086Z" fill="#E0E3E8"/>
<path d="M13.3531 11.4451C13.4191 11.4877 13.496 11.5104 13.5747 11.5106C13.7142 11.5104 13.844 11.4393 13.9194 11.3218C14.2465 10.8195 14.7274 10.4362 15.29 10.2291C15.8526 10.0221 16.4671 10.0025 17.0419 10.173C17.1489 10.2147 17.2683 10.2098 17.3713 10.1596C17.4743 10.1091 17.5516 10.0179 17.5845 9.90811C17.6171 9.79812 17.6025 9.67951 17.5438 9.58093C17.4853 9.48235 17.3881 9.41283 17.2759 9.38919C16.9421 9.28761 16.5949 9.23631 16.2459 9.23732C15.0269 9.23652 13.8911 9.85461 13.2299 10.8786C13.1079 11.0692 13.163 11.3224 13.3531 11.4451Z" fill="#E0E3E8"/>
<path d="M23.2423 9.08583C23.8216 9.08303 24.3613 9.37936 24.6703 9.86941C24.7456 9.98682 24.8754 10.0579 25.0149 10.0581C25.0934 10.0579 25.1704 10.0353 25.2365 9.99263C25.4266 9.87001 25.4815 9.61676 25.3595 9.42643C24.8995 8.70194 24.1005 8.26355 23.2424 8.26514C23.0158 8.26514 22.832 8.44887 22.832 8.67547C22.832 8.90208 23.0157 9.08583 23.2423 9.08583Z" fill="#E0E3E8"/>
</svg>
