<svg width="24" height="24" viewBox="0 0 24 24" fill="none" xmlns="http://www.w3.org/2000/svg">
<path d="M18.1293 16.7574H17.6578V8.74292C17.6578 8.57444 17.568 8.41881 17.4221 8.33462C17.2763 8.25044 17.0965 8.25044 16.9507 8.33462C16.8048 8.41881 16.715 8.57445 16.715 8.74292V16.7574H14.3578V12.9859C14.3578 12.8174 14.2679 12.6618 14.122 12.5776C13.9762 12.4934 13.7964 12.4934 13.6506 12.5776C13.5047 12.6618 13.4149 12.8174 13.4149 12.9859V16.7574H10.5862V11.1001C10.5862 10.9316 10.4964 10.776 10.3505 10.6918C10.2047 10.6076 10.0249 10.6076 9.87907 10.6918C9.73322 10.776 9.64335 10.9317 9.64335 11.1001V16.7574H7.28615V13.4573C7.28615 13.2888 7.19628 13.1332 7.05043 13.049C6.90457 12.9648 6.72484 12.9648 6.57899 13.049C6.43314 13.1332 6.34327 13.2889 6.34327 13.4573V16.7574H5.87182C5.70335 16.7574 5.54772 16.8473 5.46353 16.9931C5.37934 17.139 5.37934 17.3187 5.46353 17.4646C5.54772 17.6104 5.70335 17.7003 5.87182 17.7003H18.1293C18.2978 17.7003 18.4534 17.6104 18.5376 17.4646C18.6218 17.3187 18.6218 17.139 18.5376 16.9931C18.4534 16.8473 18.2978 16.7574 18.1293 16.7574Z" fill="white"/>
<path d="M6.81481 12.0429C7.25826 12.044 7.67625 11.8359 7.94268 11.4814C8.20923 11.127 8.29289 10.6677 8.16872 10.2419L9.30524 9.42761V9.42771C9.57285 9.61724 9.89853 9.70699 10.2256 9.68132C10.5526 9.65565 10.8603 9.516 11.095 9.2869L12.4892 9.98733C12.4326 10.4437 12.6022 10.8991 12.9433 11.2074C13.2845 11.5157 13.7545 11.6384 14.2029 11.5362C14.6512 11.434 15.0217 11.1195 15.1953 10.6938C15.369 10.2679 15.3243 9.78412 15.0754 9.39741L16.7437 7.25057V7.25068C17.1685 7.39011 17.6342 7.31992 17.999 7.06137C18.3638 6.80292 18.5845 6.38683 18.5938 5.9398C18.603 5.49287 18.3999 5.06795 18.0462 4.79444C17.6924 4.52106 17.23 4.43159 16.7998 4.55325C16.3696 4.6749 16.0225 4.99322 15.8642 5.4114C15.7061 5.82958 15.7555 6.29798 15.9975 6.67387L14.3292 8.8207C14.0857 8.7362 13.8235 8.72147 13.5721 8.77819C13.3207 8.8348 13.09 8.96055 12.9063 9.14125L11.512 8.44104C11.5647 8.02073 11.4254 7.59918 11.133 7.29285C10.8405 6.98663 10.4256 6.82815 10.0034 6.86139C9.58124 6.89475 9.19641 7.11616 8.95544 7.46448C8.71456 7.81281 8.6431 8.25109 8.76096 8.65793L7.62444 9.47212C7.25561 9.21378 6.78574 9.14664 6.35934 9.29144C5.93283 9.43613 5.60094 9.77551 5.4657 10.2051C5.33037 10.6346 5.40793 11.1029 5.67438 11.4659C5.94093 11.8289 6.36449 12.0432 6.81478 12.0428L6.81481 12.0429Z" fill="white"/>
</svg>
