<svg width="32" height="33" viewBox="0 0 32 33" fill="none" xmlns="http://www.w3.org/2000/svg">
<path d="M15.5954 7.86123C15.5956 8.00474 15.5386 8.14244 15.4372 8.24385C15.3358 8.34526 15.1984 8.40225 15.0548 8.40225H14.8025C14.5036 8.40225 14.2615 8.16012 14.2615 7.86124C14.2615 7.56259 14.5036 7.32045 14.8025 7.32045H15.0548C15.1984 7.32045 15.3358 7.37744 15.4372 7.47885C15.5386 7.58027 15.5956 7.71795 15.5954 7.86123ZM13.0206 9.52752H11.8541C11.5552 9.52752 11.3131 9.76988 11.3131 10.0685C11.3131 10.3674 11.5552 10.6095 11.8541 10.6095H13.0206C13.3195 10.6095 13.5616 10.3674 13.5616 10.0685C13.5616 9.76988 13.3195 9.52752 13.0206 9.52752ZM29.7942 12.678V14.2001H29.7945C29.7938 14.4743 29.7003 14.7404 29.5288 14.9546C29.3574 15.1689 29.1183 15.3186 28.8508 15.3793C29.2125 18.2063 28.6226 21.0733 27.1747 23.528C25.7266 25.9828 23.5025 27.8857 20.8535 28.9363C20.7889 28.9626 20.72 28.9761 20.6502 28.9761H11.319C11.2492 28.9761 11.1804 28.9626 11.1157 28.9363C8.46697 27.885 6.24358 25.9821 4.7957 23.5275C3.34782 21.0729 2.75791 18.2062 3.11893 15.3795C2.85121 15.3188 2.6121 15.1692 2.44066 14.955C2.26924 14.7408 2.1755 14.4747 2.1748 14.2002V12.6781C2.17527 12.3569 2.30296 12.049 2.52997 11.8219C2.75722 11.5949 3.06495 11.4672 3.38616 11.4668H5.22924C5.98915 10.4373 9.24521 6.33523 14.3181 4.20533C14.9952 3.91993 15.7611 3.9325 16.4284 4.24022C17.0957 4.54771 17.6028 5.12177 17.8259 5.82184C17.8312 5.83905 17.8386 5.85696 17.8442 5.8744C18.0226 5.86324 18.2494 5.85417 18.5153 5.85417C20.6856 5.85417 25.4492 6.4589 27.5011 11.4669H28.5841V11.4667C28.9051 11.4672 29.2129 11.5951 29.4398 11.8221C29.6668 12.0491 29.7943 12.3569 29.7948 12.6781L29.7942 12.678ZM18.3099 6.9343C19.2493 8.60018 21.3311 10.4449 25.8357 11.4666H26.3202C24.4234 7.43251 20.4188 6.9315 18.5532 6.9315C18.4674 6.9315 18.386 6.93243 18.3097 6.9343L18.3099 6.9343ZM6.60765 11.4666H22.2648C18.7399 9.96874 17.328 7.84283 16.794 6.14647H16.7942C16.6672 5.73826 16.3723 5.40336 15.9831 5.22609C15.5896 5.04327 15.1372 5.0349 14.7371 5.20283C10.7155 6.89145 7.83294 9.978 6.60812 11.4669L6.60765 11.4666ZM27.8727 16.9154C27.8723 16.4126 27.8395 15.9101 27.775 15.4112H4.19428C4.13031 15.9101 4.09798 16.4125 4.09728 16.9154C4.09124 19.2661 4.78484 21.5655 6.08994 23.5207C7.39503 25.4756 9.25275 26.9982 11.4261 27.8939H20.5436H20.5433C22.7169 26.9982 24.5744 25.4759 25.8798 23.5207C27.1851 21.5655 27.8789 19.2663 27.8729 16.9154H27.8727ZM28.7128 12.678C28.7126 12.6066 28.6549 12.5489 28.5837 12.5487H3.38576C3.31435 12.5487 3.2562 12.6064 3.25597 12.678V14.2001C3.2562 14.2715 3.31435 14.3292 3.38576 14.3292H28.5837C28.6549 14.3289 28.7126 14.2713 28.7128 14.2001V12.678ZM17.8293 16.5745H6.08419C5.786 16.5752 5.54434 16.8173 5.54434 17.1155C5.54434 17.4139 5.786 17.656 6.08419 17.6565H17.8293C18.1275 17.656 18.3692 17.4139 18.3692 17.1155C18.3692 16.8173 18.1275 16.5752 17.8293 16.5745Z" fill="#E0E3E8"/>
</svg>
