<svg width="24" height="24" viewBox="0 0 24 24" fill="none" xmlns="http://www.w3.org/2000/svg">
<path d="M15.4351 21.8998C14.8752 21.8998 14.305 21.63 13.8163 21.4101C13.5923 21.3101 13.3887 21.2102 13.2157 21.1502C12.6659 20.9703 12.2892 20.6505 11.8819 20.3206C11.5154 20.0208 11.1082 19.671 10.4668 19.3511C8.69529 18.4516 4.84688 15.4031 4.23602 11.725C3.57425 7.77696 6.19077 6.1178 6.30276 6.04784C6.51656 5.9179 6.80163 5.97787 6.93398 6.18777C7.06633 6.39766 7.00525 6.67752 6.79145 6.80745C6.69982 6.86742 4.57199 8.23673 5.13194 11.575C5.7428 15.2532 9.82538 18.0118 10.8842 18.5515C11.6172 18.9213 12.0957 19.3211 12.4724 19.641C12.8491 19.9508 13.1138 20.1807 13.5007 20.3006C13.7247 20.3706 13.9589 20.4805 14.2032 20.6005C14.6919 20.8204 15.2926 21.1002 15.6285 20.9803C15.6795 20.9603 15.8424 20.9003 15.9747 20.5605C16.2292 19.9708 16.0052 19.7009 15.6591 19.2911C15.374 18.9413 15.0075 18.5015 15.1297 17.8619C15.3028 16.9423 15.3944 13.2442 14.3152 11.7849C14.2236 11.665 14.1828 11.5251 14.1828 11.3751C14.2134 9.82593 12.0652 7.43714 11.3627 7.23724C11.2609 7.20725 11.1693 7.15728 11.098 7.09731C10.5075 6.59756 9.6523 6.39766 8.55276 6.49761C8.29823 6.5176 8.07425 6.33769 8.05389 6.08782C8.03353 5.83794 8.21678 5.61805 8.47131 5.59806C9.80502 5.47812 10.874 5.74799 11.658 6.38767C12.7473 6.74748 15.0788 9.39615 15.0991 11.3152C16.3819 13.1443 16.1987 17.1622 16.0256 18.0318C15.9849 18.2417 16.0969 18.3916 16.3616 18.7214C16.7179 19.1612 17.2677 19.8209 16.8095 20.9003C16.6161 21.3601 16.3209 21.6699 15.9442 21.8099C15.7914 21.8698 15.6184 21.8998 15.4351 21.8998Z" fill="white"/>
<path d="M5.62285 7.76659H5.61267C5.35814 7.75659 5.16471 7.55669 5.16471 7.30682C5.16471 7.28683 5.19525 5.60768 4.46222 3.63867C4.43167 3.54872 4.42149 3.44877 4.45204 3.35881C4.61493 2.80909 5.02217 2.35932 5.53122 2.17941C5.969 2.02949 6.41697 2.08946 6.80385 2.34932C6.87511 2.3993 6.9362 2.46926 6.96674 2.54922C7.45543 3.66866 8.60588 5.22787 9.1862 5.3678C9.43054 5.42777 9.58326 5.66765 9.52217 5.90753C9.46109 6.14741 9.21674 6.29733 8.9724 6.23736C7.86267 5.97749 6.65113 4.02848 6.19299 3.03898C6.08099 2.989 5.969 2.989 5.84683 3.02898C5.65339 3.09895 5.48032 3.26886 5.38869 3.48875C6.12172 5.5577 6.09118 7.25685 6.09118 7.32681C6.07081 7.56669 5.86719 7.76659 5.62285 7.76659Z" fill="white"/>
<path d="M5.65149 14.6438C5.58022 14.6438 5.49877 14.6238 5.42751 14.5838C5.20353 14.4639 5.12208 14.194 5.24425 13.9741C5.28497 13.9042 6.28271 12.1351 8.39018 11.0456C8.61416 10.9257 8.88905 11.0156 9.01122 11.2355C9.13339 11.4554 9.04176 11.7253 8.81778 11.8452C6.97502 12.8047 6.06891 14.3939 6.05873 14.4139C5.9671 14.5638 5.81438 14.6438 5.65149 14.6438Z" fill="white"/>
<path d="M10.7943 13.6742C10.6823 13.6742 10.5805 13.6343 10.4888 13.5643C10.2954 13.4044 10.275 13.1145 10.4481 12.9346C10.5092 12.8646 12.0262 11.1955 14.6121 10.9956C14.8667 10.9756 15.0805 11.1655 15.1008 11.4054C15.1212 11.6553 14.9278 11.8651 14.6834 11.8851C12.4741 12.0451 11.1506 13.5043 11.1404 13.5143C11.0488 13.6243 10.9266 13.6742 10.7943 13.6742Z" fill="white"/>
<path d="M11.1906 19.6909C11.1397 19.6909 11.0786 19.6809 11.0277 19.6609C10.7935 19.571 10.6713 19.3111 10.763 19.0812C10.7833 19.0213 11.3738 17.542 13.2268 17.0023C13.4711 16.9323 13.7256 17.0622 13.7969 17.3021C13.8682 17.542 13.7358 17.7919 13.4915 17.8618C12.0865 18.2816 11.6385 19.3611 11.6182 19.4111C11.5469 19.581 11.3738 19.6909 11.1906 19.6909Z" fill="white"/>
<path d="M9.59176 11.2249C9.42886 11.2249 9.26596 11.1349 9.18452 10.975C9.07252 10.7551 9.16415 10.4852 9.38814 10.3753C9.57139 10.2853 10.1823 9.98548 10.4775 9.93551C10.7218 9.88554 10.9662 10.0554 11.0069 10.2953C11.0578 10.5352 10.8847 10.7751 10.6404 10.8151C10.5386 10.8351 10.1415 11.005 9.79538 11.1749C9.73429 11.2149 9.66302 11.2249 9.59176 11.2249Z" fill="white"/>
<path d="M18.0731 16.4623C16.7598 16.4623 15.5991 16.0525 15.5482 16.0326C15.3141 15.9426 15.1919 15.6927 15.2733 15.4529C15.3548 15.213 15.6195 15.103 15.8638 15.183C15.874 15.183 17.2586 15.6727 18.5822 15.5328C18.7043 15.5228 18.8061 15.4628 18.8774 15.3629C18.9487 15.2629 18.9792 15.143 18.9589 15.0231C18.7349 13.8936 18.1444 12.5743 17.7066 12.2545C17.4826 12.0945 17.3299 11.8847 17.2383 11.6548C17.1975 11.5548 17.167 11.4449 17.1365 11.3249C16.9227 10.6353 16.6376 9.68576 15.4566 9.0261C15.3141 8.94614 15.1919 8.84619 15.0901 8.71625C13.2677 6.57733 9.31745 6.29747 9.27673 6.29747C9.0222 6.27748 8.82877 6.06759 8.84913 5.81772C8.86949 5.56784 9.08329 5.37794 9.33782 5.39793C9.52107 5.40792 13.7258 5.69778 15.7824 8.14654C15.8129 8.18652 15.8537 8.21651 15.9046 8.24649C17.391 9.08607 17.7779 10.3254 18.0018 11.0651C18.0324 11.175 18.0629 11.275 18.0935 11.3649C18.124 11.4449 18.1851 11.5048 18.2462 11.5448C19.0199 12.1145 19.6512 13.8337 19.8548 14.8631C19.9261 15.233 19.8344 15.6128 19.6104 15.9126C19.3865 16.2125 19.0505 16.4024 18.6738 16.4424C18.4702 16.4523 18.2665 16.4623 18.0731 16.4623Z" fill="white"/>
<path d="M16.545 13.3634C16.4839 13.3634 16.4127 13.3534 16.3516 13.3234C16.1174 13.2234 16.0156 12.9536 16.1276 12.7237C16.5756 11.7642 17.5937 11.3844 17.6446 11.3744C17.8787 11.2944 18.1435 11.4143 18.2351 11.6442C18.3165 11.8741 18.1944 12.134 17.9602 12.2239C17.9398 12.2339 17.2475 12.4938 16.9625 13.1035C16.8912 13.2634 16.7181 13.3634 16.545 13.3634Z" fill="white"/>
<path d="M14.9972 9.32566C14.8649 9.32566 14.7427 9.27569 14.6511 9.17574C14.4882 8.98583 14.4983 8.70597 14.6918 8.53606C15.1296 8.15625 15.5775 8.15625 15.6386 8.15625L15.6284 9.0558H15.6386C15.6284 9.0558 15.4655 9.06579 15.2925 9.21571C15.211 9.28568 15.099 9.32566 14.9972 9.32566Z" fill="white"/>
</svg>
