<svg width="30" height="31" viewBox="0 0 30 31" fill="none" xmlns="http://www.w3.org/2000/svg">
<g opacity="0.2">
<path d="M20.6562 8.15765H25.134C25.4299 8.15765 25.675 8.24871 25.8691 8.43108C26.063 8.61346 26.1826 8.85247 26.2278 9.14858L26.8774 15.8135H24.69L24.1431 10.3448H20.6563V13.626C20.6563 13.9454 20.554 14.2076 20.3489 14.4124C20.1441 14.6172 19.8819 14.7198 19.5626 14.7198C19.2432 14.7198 18.981 14.6172 18.7762 14.4124C18.5711 14.2076 18.4688 13.9454 18.4688 13.626V10.3448H9.7189V13.626C9.7189 13.9454 9.61636 14.2076 9.41152 14.4124C9.20669 14.6172 8.94448 14.7198 8.62516 14.7198C8.30583 14.7198 8.04361 14.6172 7.83878 14.4124C7.63396 14.2076 7.53141 13.9454 7.53141 13.626V10.3448H4.04463L2.3012 27.8447H14.093V30.0322H1.07059C0.751008 30.0322 0.483435 29.9125 0.267593 29.6735C0.0517758 29.4343 -0.0334296 29.155 0.0117326 28.8357L1.95972 9.14831C2.00562 8.85217 2.12524 8.61316 2.31836 8.43081C2.51172 8.24844 2.75659 8.15738 3.05348 8.15738H7.53126V7.40495C7.57715 5.44502 8.21506 3.8156 9.4453 2.51705C10.6753 1.21824 12.2248 0.546125 14.0937 0.5C15.9626 0.546142 17.5119 1.21824 18.7421 2.51705C19.9721 3.8156 20.6103 5.44502 20.6562 7.40495L20.6562 8.15765ZM18.4687 8.15765V7.40522C18.446 6.06048 18.0188 4.9438 17.1868 4.05493C16.355 3.16625 15.3237 2.71044 14.0938 2.68775C12.8629 2.71046 11.8319 3.16626 11.0008 4.05493C10.1695 4.94386 9.74225 6.06054 9.71881 7.40522V8.15765H18.4687Z" fill="#62728D"/>
<path d="M29.4374 20.8523L19.7625 30.4999L15.3281 26.0781L16.4649 24.9445L19.7625 28.2247L28.3006 19.7188L29.4374 20.8523Z" fill="#00875A"/>
</g>
</svg>
