<svg width="32" height="33" viewBox="0 0 32 33" fill="none" xmlns="http://www.w3.org/2000/svg">
<path d="M19 7.49992C19 7.77605 18.776 8 18.4999 8C18.2238 8 18 7.77604 18 7.49992C18 7.2238 18.2238 7 18.4999 7C18.776 7 19 7.22381 19 7.49992Z" fill="#E0E3E8"/>
<path d="M16 7.49992C16 7.77605 15.776 8 15.4999 8C15.2238 8 15 7.77604 15 7.49992C15 7.2238 15.2238 7 15.4999 7C15.776 7 16 7.22381 16 7.49992Z" fill="#E0E3E8"/>
<path d="M17 6.50008C17 6.77621 16.7762 7 16.5 7C16.2238 7 16 6.77619 16 6.50008C16 6.22395 16.2238 6 16.5 6C16.7762 6 17 6.22396 17 6.50008Z" fill="#E0E3E8"/>
<path d="M27.6503 26.3602L26.3021 24.9552C26.3021 24.9102 26.2973 24.8652 26.2926 24.8202L24.9972 13.6751C25.5778 13.52 25.9952 13.085 25.9952 12.5551V12.4552C25.9952 11.0751 24.6758 9.85015 23.0349 9.56514C22.5022 8.60494 20.0265 4.53463 15.8235 4.00506L15.7612 4L15.7036 4.00506C11.5199 4.53494 9.04399 8.56984 8.49727 9.55487C6.81808 9.80987 5.45067 11.0549 5.45067 12.4548V12.5547C5.45067 13.1697 6.00249 13.6548 6.7317 13.7248L5.69533 24.8449C5.69047 24.8849 5.69047 24.925 5.68579 24.9649L4.34718 26.3599C4.00658 26.7149 3.90582 27.2299 4.09294 27.6899C4.29931 28.205 4.78384 28.5149 5.34522 28.4349L7.84004 28.0649C7.86397 28.0749 7.88807 28.0799 7.91686 28.085C10.5461 28.6949 13.2427 29 15.9339 29C18.4862 29 21.0484 28.7201 23.5481 28.175L24.0423 28.0649C24.0616 28.0598 24.076 28.055 24.0951 28.0499L26.6572 28.43C26.7147 28.4399 26.7723 28.445 26.8299 28.445C27.3 28.445 27.7271 28.15 27.9094 27.685C28.0917 27.2249 27.9958 26.7148 27.6503 26.3599V26.3602ZM15.7613 5.00489C18.875 5.4249 20.9958 8.16492 21.8592 9.50002H9.66293C10.5217 8.16501 12.6376 5.43007 15.7608 5.00489H15.7613ZM6.41517 12.5551V12.4552C6.41517 11.5552 7.59546 10.5051 9.12118 10.5051H22.3248C23.8505 10.5051 25.0308 11.5552 25.0308 12.4552V12.5452C25.0212 12.5802 24.9349 12.6451 24.8053 12.6901L20.7942 13.3051C20.559 13.3402 20.2855 13.3751 19.9881 13.4002C18.8606 13.5102 17.335 13.5751 15.6988 13.5751C13.5397 13.5751 11.5582 13.4651 10.3875 13.2802L6.82274 12.7152V12.7252C6.57805 12.7051 6.42942 12.5951 6.41503 12.5551L6.41517 12.5551ZM27.0218 27.3104C27.0074 27.3455 26.969 27.4404 26.7915 27.4505L24.0232 27.0404L23.9273 27.0653C23.8985 27.0753 23.8697 27.0854 23.8409 27.0953L23.3467 27.2054C18.3474 28.3004 13.1274 28.2804 8.10406 27.1103C8.07527 27.1004 8.04648 27.0903 8.01769 27.0803L7.91694 27.0503L5.17258 27.4505C5.04789 27.4505 4.995 27.3455 4.9806 27.3104C4.95667 27.2504 4.94228 27.1553 5.02864 27.0704L6.64558 25.3853V25.1003C6.64558 25.0553 6.64558 25.0103 6.65043 24.9554L7.6868 13.8705L10.2489 14.2755C11.458 14.4654 13.497 14.5854 15.6994 14.5854C17.5082 14.5854 19.1442 14.5104 20.3294 14.3754C20.5453 14.3505 20.7517 14.3254 20.9388 14.2954L24.0525 13.8204L25.3479 24.9357C25.3528 24.9857 25.3528 25.0356 25.3528 25.0806V25.3707L26.9841 27.0707C27.0558 27.1557 27.0462 27.2457 27.0221 27.3108L27.0218 27.3104Z" fill="#E0E3E8"/>
<path d="M16.0002 16.833C14.2235 18.7288 13.3335 20.3663 13.3335 21.7497C13.3335 23.8247 14.6002 25.1663 16.0002 25.1663C17.4002 25.1663 18.6668 23.8247 18.6668 21.7497C18.6668 20.3663 17.7768 18.7288 16.0002 16.833ZM16.0002 24.333C14.8835 24.333 14.0002 23.2622 14.0002 21.7497C14.0002 20.7747 14.6502 19.483 16.0002 17.9413C17.3502 19.483 18.0002 20.7705 18.0002 21.7497C18.0002 23.2622 17.1168 24.333 16.0002 24.333ZM14.6102 21.833C14.7335 21.833 14.8335 21.9413 14.8568 22.0913C14.9935 23.0163 15.6168 23.333 16.0702 23.2872C16.2135 23.2788 16.3335 23.4205 16.3335 23.5997C16.3335 23.7663 16.2268 23.9038 16.0935 23.9122C15.3835 23.9663 14.5535 23.458 14.3635 22.1955C14.3577 22.1508 14.3597 22.1051 14.3695 22.0615C14.3792 22.0179 14.3964 21.9775 14.4198 21.943C14.4433 21.9086 14.4725 21.8809 14.5053 21.8619C14.5382 21.8429 14.574 21.833 14.6102 21.833Z" fill="#E0E3E8"/>
</svg>
